<svg xmlns="http://www.w3.org/2000/svg" width="23" height="23" viewBox="0 0 23 23" fill="none">
<path d="M4.79163 17.25V20.8591L6.2435 19.988L10.8071 17.25H15.3333C16.3903 17.25 17.25 16.3904 17.25 15.3333V7.66667C17.25 6.60962 16.3903 5.75 15.3333 5.75H3.83329C2.77625 5.75 1.91663 6.60962 1.91663 7.66667V15.3333C1.91663 16.3904 2.77625 17.25 3.83329 17.25H4.79163ZM3.83329 7.66667H15.3333V15.3333H10.2762L6.70829 17.4742V15.3333H3.83329V7.66667Z" fill="black"/>
<path d="M19.1667 1.91669H18.2083H16.2898H7.66667C6.60963 1.91669 5.75 2.77631 5.75 3.83335H15.8949H17.25C18.307 3.83335 19.1667 4.69298 19.1667 5.75002V7.1051V11.5V13.4167C20.2237 13.4167 21.0833 12.5571 21.0833 11.5V6.70835V4.79169V3.83335C21.0833 2.77631 20.2237 1.91669 19.1667 1.91669Z" fill="black"/>
</svg>