<svg xmlns="http://www.w3.org/2000/svg" width="86" height="60" viewBox="0 0 86 60" fill="none">
  <g clip-path="url(#clip0_21_1)">
    <path d="M8.61357 10.2056C10.9384 10.2056 12.823 8.31772 12.823 5.98893C12.823 3.66014 10.9384 1.77228 8.61357 1.77228C6.28875 1.77228 4.40411 3.66014 4.40411 5.98893C4.40411 8.31772 6.28875 10.2056 8.61357 10.2056Z" fill="#00B0FF"/>
    <path opacity="0.1" d="M8.09928 14.5728C9.86672 18.5718 7.61214 23.1766 4.95826 26.6441C4.07001 27.8069 3.0894 29.0259 2.96626 30.4843C2.81776 32.2684 4.02383 33.9083 5.45445 34.9803C8.06396 36.934 11.6278 37.5381 14.7335 36.5522C17.4173 35.7005 19.6737 33.7767 22.381 33.0013C26.9083 31.7024 31.7072 33.8557 35.5843 36.5386C38.3288 38.4351 41.2679 40.7462 44.5764 40.3398C46.9043 40.0541 48.88 38.417 50.221 36.4896C50.8684 35.559 51.4316 34.516 52.3742 33.8883C52.9346 33.5146 53.5929 33.3169 54.2512 33.1754C60.2625 31.8884 66.6423 35.0293 72.5739 33.4139C76.5805 32.3255 79.775 29.151 81.7616 25.4985C83.7481 21.846 84.6753 17.7219 85.4477 13.6359C85.9964 10.7335 86.4518 7.59795 85.1905 4.92864C83.8559 2.10242 80.7665 0.389093 77.6617 0.0680143C74.5569 -0.253064 71.443 0.633077 68.5827 1.88293C65.0088 3.44841 61.5056 5.63973 57.605 5.64698C54.9484 5.65243 52.4149 4.63114 49.8751 3.85203C45.6285 2.55048 41.2126 1.90379 36.8121 1.30698C32.599 0.735568 28.3443 0.204065 24.1059 0.54147C21.107 0.780011 18.4586 1.92828 15.5484 2.45978C13.6515 2.80625 11.7455 2.55048 9.88392 3.13096C7.59132 3.84931 5.23352 5.51365 5.10675 8.13489C4.98723 10.6301 7.16213 12.4513 8.09928 14.5728Z" fill="#00B0FF"/>
    <path d="M54.4993 18.1337C54.1126 17.1242 53.1157 14.7515 52.4593 15.2222C51.6299 15.8172 53.2887 18.4457 53.2887 18.4457C53.3358 18.9282 52.4031 19.9323 51.9033 20.4329C51.9033 20.393 51.9033 20.3704 51.9033 20.3704C51.8986 20.3894 51.8913 20.4077 51.8816 20.4248L51.8399 20.4021C51.8288 20.4421 51.8087 20.479 51.7811 20.51C51.7811 20.442 51.7766 20.4021 51.7766 20.4021C51.6806 20.8093 50.0055 21.3254 50.0055 21.3254C50.0055 21.3254 49.9602 21.3254 49.8824 21.3254C49.417 21.3254 48.2055 21.2202 47.6441 20.3205C47.3537 19.8331 46.9823 19.399 46.5458 19.0371C46.3963 18.9197 46.2147 18.8508 46.0251 18.8393C44.4741 18.7396 43.2182 17.9532 42.9674 17.7854L42.9212 17.7537L42.9113 17.7827C42.8524 17.6983 42.7954 17.6085 42.7419 17.516L42.7148 17.4661C43.0902 17.2773 43.4061 16.9881 43.6275 16.6304C43.8488 16.2728 43.967 15.8607 43.9688 15.4399C43.9688 15.4245 43.9688 15.4081 43.9688 15.3927C44.1053 15.1565 44.1771 14.8884 44.1771 14.6154V14.3433L44.5311 14.0277C44.6932 13.8835 44.8607 13.7311 44.9431 13.5325C44.9762 13.4521 44.991 13.3653 44.9866 13.2785C44.9945 13.2041 44.9834 13.1289 44.9542 13.06C44.9251 12.9912 44.8789 12.9309 44.82 12.8849C44.5483 12.6971 44.0956 12.8849 43.8991 12.6237C43.8086 12.5057 43.8249 12.3452 43.7805 12.2064C43.69 11.9244 43.364 11.772 43.0625 11.7674C42.761 11.7629 42.4721 11.8727 42.1824 11.9552C41.5736 12.1283 40.9383 12.1879 40.3081 12.1311C40.1376 12.1008 39.9626 12.1069 39.7947 12.1493C39.6921 12.1918 39.601 12.2578 39.5286 12.3421C39.4563 12.4264 39.4047 12.5266 39.3782 12.6345C39.3558 12.7156 39.3424 12.799 39.3383 12.8831C39.0857 13.1685 38.946 13.5365 38.9454 13.9179V14.6154C38.9459 14.9878 39.0792 15.3477 39.3211 15.6304C39.3497 15.9585 39.4493 16.2766 39.613 16.5623C39.7767 16.848 40.0006 17.0945 40.2692 17.2847C40.2692 17.3029 40.2692 17.3213 40.2692 17.3401L40.2809 17.3473C40.2663 17.5635 40.233 17.7781 40.1813 17.9886V17.9423C40.1813 17.9423 38.9137 18.618 37.5555 18.6344H37.4061C37.1382 18.6253 36.8777 18.7232 36.6817 18.9065C36.2797 19.2856 35.5753 19.8851 35.1425 19.8851C35.0519 19.8851 32.7666 20.3323 32.3881 20.4066L31.6809 19.7128L31.6592 19.7536L31.6175 19.7128C31.5402 19.7188 31.4634 19.73 31.3876 19.7463C31.0254 19.3164 30.301 18.3169 30.1335 16.9754C30.1335 16.9754 31.6972 15.1914 31.1223 13.5288C30.6315 12.1121 29.2797 15.1487 28.8957 16.0639C28.8286 16.2236 28.8202 16.402 28.8722 16.5673L30.1426 20.6688C30.0216 20.9866 29.9869 21.3308 30.042 21.6665H30.0276L30.9529 22.8555C30.9529 22.8555 31.6492 23.153 32.7385 23.1476C33.5368 23.1489 34.328 22.9968 35.0691 22.6995H35.2837L35.243 22.715H36.3449L37.0457 24.8383C37.0222 25.0314 36.6836 27.728 36.4119 28.3311C36.3313 28.5326 36.2949 28.7492 36.3051 28.966C36.3193 29.3827 36.3872 29.7957 36.507 30.195L37.1209 30.1723L37.0973 30.2204C36.5776 31.2879 35.7093 33.1899 35.1959 34.9677L34.3022 36.7817L34.9722 44.9175H34.9994L35.051 44.9256C35.1235 44.9365 35.2321 44.9528 35.3752 44.971L35.3227 45.0617L33.8459 47.5106C33.8459 47.5106 32.7928 49.6702 35.1225 49.2629C35.1225 49.2629 35.9836 49.0126 36.335 47.5396L37.867 46.1002C37.867 46.1002 37.9385 45.1442 37.5048 44.7624C37.4776 44.3207 37.4088 43.0309 37.5148 42.7207C37.6424 42.3452 36.9715 38.027 36.9715 38.027C36.9715 38.027 39.3963 32.9886 40.8649 32.8634C40.9726 32.8558 41.0807 32.87 41.1828 32.9051C42.3897 33.2988 43.852 36.222 44.2821 37.1318L44.302 37.1735V37.1816L44.3183 37.217V37.227L44.3328 37.2578V37.266L44.3455 37.2941V37.3005L44.3564 37.3231V37.3322L44.3645 37.3494V37.3567L44.37 37.3694V37.3767V37.3848L44.3745 37.3957L44.5655 43.0599L44.5845 43.0699H44.5936L44.5773 43.1869L44.494 43.7719C44.494 43.7719 45.547 45.9941 45.4828 46.2753C45.4185 46.5564 46.1845 47.6838 47.2692 47.3709C48.354 47.058 47.7084 45.2939 47.7084 45.2939L46.6635 43.137L46.6173 43.0409C46.7214 42.9769 46.8195 42.9038 46.9107 42.8223C46.9107 42.8223 46.5919 40.5067 46.9107 40.0061C47.2294 39.5054 47.3254 37.2206 47.3254 37.2206C47.3254 37.2206 47.1017 35.6561 46.7187 34.9677L45.1142 29.2309C45.595 29.6789 45.969 29.854 46.2814 29.8422H46.333C46.4703 29.8448 46.6059 29.811 46.7259 29.7442C46.7904 29.7078 46.8511 29.6649 46.907 29.6163C46.9177 29.6071 46.9277 29.5971 46.9369 29.5864C47.3833 29.2109 46.4262 27.7398 45.8839 26.8654C45.3614 26.0219 46.0813 23.7299 46.1356 23.5594C46.1839 23.5238 46.2358 23.4934 46.2904 23.4687C46.4027 23.4205 46.5232 23.3943 46.6454 23.3916C47.1651 23.4097 47.8043 23.709 48.5957 23.8596C49.1457 23.9533 49.703 23.9967 50.2608 23.9893H50.2934C50.5153 23.9893 50.7163 23.9848 50.8793 23.9784C51.028 23.9726 51.1734 23.9332 51.3048 23.8632C51.4174 23.7974 51.5194 23.7149 51.6072 23.6183L52.9962 22.0465L52.96 22.0637C53.0273 21.8855 53.0273 21.6887 52.96 21.5105L54.4277 18.9709C54.5018 18.8457 54.5467 18.7054 54.5591 18.5605C54.5715 18.4155 54.5511 18.2696 54.4993 18.1337Z" fill="url(#paint0_linear_21_1)"/>
    <path d="M38.0091 45.8853L36.5305 47.3047C36.1919 48.7559 35.3598 49.0017 35.3598 49.0017C33.1115 49.4026 34.1274 47.2784 34.1274 47.2784L35.5535 44.8612L35.7292 44.5628C35.7292 44.5628 36.746 44.2545 37.4233 44.4395C37.5088 44.463 37.5878 44.5058 37.6542 44.5647C38.0788 44.9338 38.0091 45.8853 38.0091 45.8853Z" fill="#444176"/>
    <path d="M47.1261 47.1505C46.0785 47.4589 45.3397 46.3487 45.4058 46.0703C45.4719 45.7918 44.4487 43.6051 44.4487 43.6051L44.5284 43.0282L44.6026 42.494L46.323 42.6173L46.4851 42.9584L47.4937 45.0853C47.4937 45.0853 48.1737 46.8421 47.1261 47.1505Z" fill="#444176"/>
    <path opacity="0.1" d="M37.6705 44.8059C37.5084 45.0843 36.1946 44.9437 35.5544 44.8567L35.7301 44.5583C35.7301 44.5583 36.7469 44.2499 37.4242 44.4349C37.5097 44.4584 37.5887 44.5012 37.6551 44.5601C37.6641 44.7106 37.6705 44.8059 37.6705 44.8059Z" fill="black"/>
    <path opacity="0.1" d="M46.4869 42.9565C45.6059 43.5442 44.6679 43.0998 44.5266 43.0263L44.6009 42.4921L46.3212 42.6155L46.4869 42.9565Z" fill="black"/>
    <path d="M46.7259 39.8691C46.4181 40.3625 46.7259 42.6463 46.7259 42.6463C45.7091 43.5724 44.5085 42.893 44.5085 42.893L44.3274 37.3086C44.3274 37.3086 42.3254 32.711 40.9084 32.8344C39.4914 32.9577 37.1508 37.9254 37.1508 37.9254C37.1508 37.9254 37.7973 42.1828 37.6741 42.5511C37.551 42.9193 37.6741 44.7107 37.6741 44.7107C37.4586 45.0807 35.2104 44.7107 35.2104 44.7107L34.5639 36.6882L35.4222 34.8978C35.9157 33.1455 36.7542 31.2698 37.2558 30.2177C37.5048 29.6943 37.6714 29.3751 37.6714 29.3751L39.3103 29.0331L44.6298 27.9284L46.5412 34.8978C46.9107 35.5762 47.1262 37.1191 47.1262 37.1191C47.1262 37.1191 47.0338 39.3757 46.7259 39.8691Z" fill="#565387"/>
    <g opacity="0.1">
      <path opacity="0.1" d="M45.0011 42.893L44.82 37.3086C44.82 37.3086 42.818 32.711 41.401 32.8343C41.3376 32.8405 41.2753 32.8545 41.2154 32.8761C42.5971 33.3359 44.3274 37.3086 44.3274 37.3086L44.5085 42.893C44.8863 43.0858 45.3121 43.1637 45.7336 43.1171C45.4781 43.0863 45.2301 43.0104 45.0011 42.893Z" fill="black"/>
      <path opacity="0.1" d="M35.6993 44.7134L35.0528 36.6909L35.9148 34.8978C36.4083 33.1455 37.2467 31.2698 37.7484 30.2177C37.9974 29.6943 38.164 29.3751 38.164 29.3751L39.8028 29.0331L44.6588 28.0218L44.6325 27.9248L39.3103 29.0331L37.6714 29.3751C37.6714 29.3751 37.5048 29.6943 37.2558 30.2177C36.7524 31.2698 35.9157 33.1491 35.4223 34.8978L34.5603 36.6873L35.2068 44.7098C35.2068 44.7098 36.4346 44.912 37.1625 44.8676C36.6725 44.8409 36.1842 44.7895 35.6993 44.7134Z" fill="black"/>
    </g>
    <path d="M31.9535 19.8606C31.9535 19.8606 30.1978 19.9513 30.4441 21.8043L30.9367 21.866L31.6755 21.0642L32.0449 20.3858V20.2316L31.9535 19.8606Z" fill="#CED2DF"/>
    <path opacity="0.1" d="M31.9535 19.8606C31.9535 19.8606 30.1978 19.9513 30.4441 21.8043L30.9367 21.866L31.6755 21.0642L32.0449 20.3858V20.2316L31.9535 19.8606Z" fill="black"/>
    <path d="M51.485 20.5391C51.485 20.5391 52.9338 21.31 52.5634 22.2052L52.1016 22.3866L51.4859 22.0474L51.3954 21.2456L51.457 20.6905L51.485 20.5391Z" fill="#CED2DF"/>
    <path opacity="0.1" d="M51.485 20.5391C51.485 20.5391 52.9338 21.31 52.5634 22.2052L52.1016 22.3866L51.4859 22.0474L51.3954 21.2456L51.457 20.6905L51.485 20.5391Z" fill="black"/>
    <path d="M42.1833 12.5783H40.951C39.8963 12.5783 39.0414 13.4347 39.0414 14.4912C39.0414 15.5476 39.8963 16.404 40.951 16.404H42.1833C43.2379 16.404 44.0929 15.5476 44.0929 14.4912C44.0929 13.4347 43.2379 12.5783 42.1833 12.5783Z" fill="#88455E"/>
    <path d="M31.9417 20.1227L30.8633 21.846L30.7727 21.5395L29.3077 16.7578C29.2576 16.5948 29.2656 16.4194 29.3304 16.2616C29.7007 15.3601 31.0064 12.3615 31.4799 13.7628C32.034 15.3954 30.5247 17.1568 30.5247 17.1568C30.6967 18.5863 31.498 19.6221 31.8131 19.9812C31.8928 20.0747 31.9417 20.1227 31.9417 20.1227Z" fill="#EC8C9C"/>
    <path d="M51.2541 20.8628C51.2541 20.8628 52.9482 19.2584 52.8839 18.6108C52.8839 18.6108 51.2822 16.0195 52.0835 15.4363C52.7173 14.9719 53.6798 17.3119 54.0529 18.3069C54.1022 18.4394 54.122 18.5812 54.1109 18.7222C54.0998 18.8632 54.0581 19.0001 53.9886 19.1232L51.964 22.714L51.2541 20.8628Z" fill="#EC8C9C"/>
    <path d="M40.2882 16.3896C40.2882 16.3896 40.596 18.3641 39.7032 19.1051C38.8105 19.8461 42.2602 19.8416 42.2602 19.8416L43.4926 18.6997C43.4926 18.6997 42.0755 17.3727 42.5065 16.3859L40.2882 16.3896Z" fill="#EC8C9C"/>
    <path opacity="0.1" d="M40.2266 18.6416C40.2266 18.6416 41.5513 19.6294 42.8751 18.5183L45.031 22.9925L44.9078 28.4536C44.9078 28.4536 40.4412 30.7673 38.5932 29.3488C36.7452 27.9302 38.2853 27.1892 38.2853 27.1892L37.8543 22.9934L38.3161 20.2779C38.3161 20.2779 39.1473 18.9818 39.2098 18.9818C39.2723 18.9818 40.2266 18.6416 40.2266 18.6416Z" fill="black"/>
    <path d="M40.2266 18.5799C40.2266 18.5799 41.5513 19.5695 42.876 18.4566L45.0319 22.9308L44.9087 28.3919C44.9087 28.3919 40.4421 30.7056 38.5941 29.2871C36.746 27.8685 38.2862 27.1275 38.2862 27.1275L37.8552 22.9317L38.317 20.2162C38.317 20.2162 39.1482 18.9201 39.2107 18.9201C39.2732 18.9201 40.2266 18.5799 40.2266 18.5799Z" fill="#EBF1F6"/>
    <path opacity="0.1" d="M40.2266 18.1183C40.2266 18.1183 38.9707 18.8348 37.6071 18.7994C37.4792 18.7954 37.3518 18.8169 37.2322 18.8627C37.1127 18.9085 37.0035 18.9776 36.9108 19.0661C36.5224 19.4398 35.8424 20.0311 35.4214 20.0311C35.3308 20.0311 32.7104 20.5554 32.7104 20.5554L32.0178 19.8615C32.0178 19.8615 30.9855 21.8823 30.493 21.7898L31.3867 22.9626C31.3867 22.9626 33.0808 23.7027 35.2982 22.8084H36.5921L37.2694 24.9063C37.2694 24.9063 36.9308 27.7452 36.6537 28.3619C36.3766 28.9787 36.7442 30.1823 36.7442 30.1823L39.1772 30.0916C39.1772 30.0916 39.3003 28.888 39.485 28.7311C39.6698 28.5742 38.8385 23.27 38.8385 23.27C38.8385 23.27 38.2844 20.2769 40.3172 19.1976L40.2266 18.1183Z" fill="black"/>
    <path opacity="0.1" d="M39.3094 29.0368C39.2198 29.4028 39.1559 29.7747 39.1183 30.1496L37.2558 30.2204C37.5048 29.6971 37.6714 29.3778 37.6714 29.3778L39.3094 29.0368Z" fill="black"/>
    <path opacity="0.1" d="M31.9417 20.1227L30.8633 21.8461L30.7728 21.5395C31.1684 21.1458 31.632 20.3232 31.8168 19.9803C31.8928 20.0747 31.9417 20.1227 31.9417 20.1227Z" fill="black"/>
    <path d="M40.2266 18.1183C40.2266 18.1183 38.9083 18.8348 37.5456 18.7994C37.4177 18.7954 37.2902 18.8169 37.1707 18.8627C37.0512 18.9085 36.9419 18.9776 36.8493 19.0661C36.4608 19.4398 35.7808 20.0311 35.3598 20.0311C35.2693 20.0311 32.6489 20.5554 32.6489 20.5554L31.9535 19.8606C31.9535 19.8606 30.9213 21.8814 30.4287 21.7889L31.3224 22.9616C31.3224 22.9616 33.0165 23.7018 35.2339 22.8075H36.5278L37.2051 24.9044C37.2051 24.9044 36.8665 27.7434 36.5894 28.3601C36.3123 28.9769 36.68 30.1805 36.68 30.1805L39.1129 30.0898C39.1129 30.0898 39.2361 28.8862 39.4208 28.7293C39.6055 28.5724 38.7743 23.2682 38.7743 23.2682C38.7743 23.2682 38.2201 20.2751 40.2529 19.1958L40.2266 18.1183Z" fill="#CED2DF"/>
    <path opacity="0.1" d="M42.876 17.9314C42.876 17.9314 44.1327 18.891 45.8105 19.0017C45.9941 19.0132 46.1696 19.0813 46.3131 19.1967C46.7362 19.5563 47.0948 19.9857 47.3733 20.4665C48.0506 21.5776 49.7139 21.4542 49.7139 21.4542C49.7139 21.4542 51.3311 20.9454 51.4234 20.5472C51.4234 20.5472 51.4696 22.724 52.4864 22.198L51.1491 23.7417C51.0648 23.8392 50.9614 23.9184 50.8454 23.9744C50.7294 24.0304 50.6032 24.062 50.4745 24.0673C49.972 24.0872 49.0991 24.0936 48.3621 23.9503C47.2529 23.7344 46.4525 23.2102 45.8676 23.6727C45.8676 23.6727 45.0979 26.079 45.6213 26.9434C46.1446 27.8078 47.07 29.2572 46.6381 29.6281C46.2062 29.9991 45.6829 29.9673 44.8209 29.073C43.9589 28.1787 43.8656 26.6668 43.8656 26.6668L44.0811 22.7794C44.0811 22.7794 43.2499 19.8479 42.4513 19.262L42.876 17.9314Z" fill="black"/>
    <path opacity="0.1" d="M52.6087 22.159L51.2677 23.709C51.1786 23.8119 51.0683 23.8942 50.9444 23.9503C50.8343 24.0001 50.7156 24.0281 50.5949 24.0328C50.0924 24.0537 49.2195 24.0601 48.4825 23.9158C47.4449 23.7136 46.677 23.2419 46.103 23.5603C46.0623 23.5827 46.0235 23.6085 45.9871 23.6374C45.9871 23.6374 45.2174 26.0437 45.7408 26.908C46.2641 27.7724 47.1895 29.2218 46.7576 29.5928C46.6853 29.6565 46.6042 29.7093 46.5168 29.7497C46.1292 29.9247 45.6484 29.7733 44.9404 29.0377C44.0784 28.1425 43.9851 26.6314 43.9851 26.6314L44.2006 22.744C44.2006 22.744 43.3694 19.8126 42.5708 19.2266L42.923 17.9614C43.1657 18.1264 44.3772 18.9019 45.8748 19.0008C46.0584 19.0123 46.2339 19.0804 46.3773 19.1958C46.8004 19.5554 47.159 19.9849 47.4376 20.4656C48.1149 21.5767 49.7782 21.4533 49.7782 21.4533C50.177 21.3259 50.5664 21.1707 50.9435 20.9889C51.1798 20.8728 51.3881 20.7459 51.4868 20.6261C51.5145 20.5949 51.5346 20.5576 51.5457 20.5173C51.5457 20.5173 51.5927 22.6832 52.6087 22.159Z" fill="black"/>
    <path d="M52.5471 22.1898L51.2071 23.7417C51.1334 23.8269 51.0451 23.8981 50.9463 23.9521C50.8198 24.021 50.6791 24.0597 50.5352 24.0655C50.0327 24.0864 49.1598 24.0927 48.4228 23.9485C47.4223 23.7535 46.6717 23.3072 46.1057 23.5621C46.0411 23.5903 45.9802 23.6266 45.9247 23.67C45.9247 23.67 45.155 26.0763 45.6784 26.9407C46.2017 27.8051 47.1271 29.2544 46.6952 29.6254C46.6393 29.6736 46.5786 29.7158 46.5141 29.7515C46.1157 29.9719 45.6231 29.8422 44.8761 29.0703C44.0141 28.1751 43.9209 26.6641 43.9209 26.6641L44.1364 22.7766C44.1364 22.7766 43.3052 19.8452 42.5066 19.2593L42.876 17.9323L42.9204 17.9632C43.163 18.1283 44.3745 18.9037 45.8721 19.0026C46.0557 19.0141 46.2312 19.0823 46.3747 19.1976C46.7978 19.5572 47.1564 19.9867 47.4349 20.4674C48.1122 21.5785 49.7756 21.4551 49.7756 21.4551C50.1743 21.3277 50.5637 21.1725 50.9409 20.9908C51.2207 20.8474 51.4488 20.6905 51.4841 20.5472C51.4841 20.5472 51.4841 20.5753 51.4841 20.6252C51.5113 20.9998 51.6471 22.6533 52.5471 22.1898Z" fill="#CED2DF"/>
    <path opacity="0.1" d="M42.5337 16.4358H40.27C40.3198 16.7963 40.3341 17.1609 40.3126 17.5242C40.6581 17.7678 41.0634 17.9125 41.4848 17.9429C41.9063 17.9732 42.328 17.8881 42.7048 17.6965C42.4875 17.2938 42.3553 16.8367 42.5337 16.4358Z" fill="black"/>
    <path d="M41.6436 17.9006C42.8853 17.9006 43.8919 16.8923 43.8919 15.6485C43.8919 14.4047 42.8853 13.3964 41.6436 13.3964C40.402 13.3964 39.3954 14.4047 39.3954 15.6485C39.3954 16.8923 40.402 17.9006 41.6436 17.9006Z" fill="#EC8C9C"/>
    <path opacity="0.1" d="M41.1764 15.2476C41.4272 15.2177 41.6781 15.1288 41.9253 15.1787C42.1498 15.224 42.3409 15.3791 42.5654 15.4263C42.9982 15.517 43.4002 15.1977 43.7271 14.9002L44.4334 14.2563C44.59 14.1139 44.7512 13.9642 44.8317 13.7683C44.9123 13.5724 44.8843 13.3148 44.7122 13.1914C44.4542 13.01 44.0096 13.1914 43.8231 12.9338C43.7389 12.8177 43.7515 12.6617 43.7081 12.523C43.6175 12.2454 43.3061 12.094 43.0145 12.0903C42.723 12.0867 42.4441 12.1937 42.1652 12.2717C41.5777 12.4424 40.9634 12.5012 40.3543 12.445C40.1899 12.4148 40.0209 12.4207 39.859 12.4622C39.7593 12.5048 39.671 12.5703 39.6012 12.6533C39.5314 12.7363 39.482 12.8346 39.457 12.9402C39.3175 13.4336 39.5557 14.229 39.7947 14.6708C40.0338 15.1125 40.6993 15.3066 41.1764 15.2476Z" fill="black"/>
    <path d="M41.1764 15.1859C41.4272 15.156 41.6781 15.0671 41.9253 15.117C42.1498 15.1623 42.3409 15.3174 42.5654 15.3646C42.9982 15.4553 43.4002 15.136 43.7271 14.8385L44.4334 14.1946C44.59 14.0522 44.7512 13.9025 44.8317 13.7066C44.9123 13.5107 44.8843 13.2531 44.7122 13.1298C44.4542 12.9484 44.0096 13.1298 43.8231 12.8722C43.7389 12.7561 43.7515 12.6001 43.7081 12.4613C43.6175 12.1838 43.3061 12.0323 43.0145 12.0287C42.723 12.025 42.4441 12.1321 42.1652 12.2101C41.5777 12.3808 40.9634 12.4395 40.3543 12.3833C40.1899 12.3531 40.0209 12.359 39.859 12.4005C39.7593 12.4431 39.671 12.5086 39.6012 12.5916C39.5314 12.6746 39.482 12.7729 39.457 12.8785C39.3175 13.3719 39.5557 14.1674 39.7947 14.6091C40.0338 15.0508 40.6993 15.2403 41.1764 15.1859Z" fill="#88455E"/>
    <path opacity="0.1" d="M37.2549 24.9208C37.2549 24.9208 37.7475 24.9825 37.9938 25.2908C38.24 25.5992 38.671 25.6917 38.671 25.6917" fill="black"/>
    <path opacity="0.1" d="M32.819 20.8474C32.819 20.8474 33.2211 21.7463 32.973 21.837C32.7249 21.9277 32.819 22.5771 32.819 22.5771" fill="black"/>
    <g opacity="0.1">
      <path opacity="0.1" d="M32.9576 20.5391C32.9576 20.5391 35.5753 20.0148 35.6658 20.0148C36.0878 20.0148 36.7669 19.4235 37.1553 19.0498C37.2734 18.9364 37.4188 18.8555 37.5773 18.8149H37.5438C37.4158 18.8109 37.2884 18.8324 37.1689 18.8781C37.0493 18.9239 36.9401 18.9931 36.8475 19.0815C36.459 19.4552 35.779 20.0466 35.358 20.0466C35.2846 20.0466 33.6096 20.3795 32.9296 20.5146L32.9576 20.5391Z" fill="black"/>
      <path opacity="0.1" d="M40.2302 18.248V18.1328C39.6005 18.4544 38.9229 18.6716 38.2238 18.7759C38.9174 18.714 39.5957 18.5356 40.2302 18.248Z" fill="black"/>
      <path opacity="0.1" d="M36.9932 30.1651C36.9932 30.1651 36.6238 28.9615 36.9027 28.3447C37.1816 27.728 37.5184 24.8891 37.5184 24.8891L36.8429 22.7912H35.5454L35.4666 22.822H36.5306L37.2051 24.9208C37.2051 24.9208 36.8665 27.7597 36.5894 28.3765C36.3123 28.9933 36.68 30.1968 36.68 30.1968L39.1129 30.1061V30.0871L36.9932 30.1651Z" fill="black"/>
    </g>
    <g opacity="0.1">
      <path opacity="0.1" d="M46.7259 29.132C46.6701 29.1801 46.6094 29.2224 46.5448 29.2581C46.1464 29.4785 45.6539 29.3488 44.9069 28.5769C44.2223 27.8667 44.0231 26.7629 43.9697 26.3448L43.9516 26.664C43.9516 26.664 44.0421 28.176 44.9069 29.0703C45.6539 29.8449 46.1464 29.9719 46.5448 29.7515C46.6094 29.7158 46.6701 29.6736 46.7259 29.6254C46.8554 29.5138 46.8626 29.3043 46.7947 29.0431C46.7779 29.077 46.7545 29.1072 46.7259 29.132Z" fill="black"/>
      <path opacity="0.1" d="M52.1116 22.236L51.2396 23.2455C51.1659 23.3307 51.0776 23.402 50.9788 23.456C50.8523 23.5248 50.7116 23.5636 50.5678 23.5693C50.0652 23.5902 49.1924 23.5965 48.4553 23.4523C47.4548 23.2573 46.7042 22.8111 46.1383 23.0659C46.0736 23.0941 46.0128 23.1304 45.9572 23.1739C45.9572 23.1739 45.4601 24.7285 45.5361 25.7869C45.595 24.7974 45.9572 23.6673 45.9572 23.6673C46.0128 23.6238 46.0736 23.5875 46.1383 23.5593C46.7051 23.3045 47.4548 23.7507 48.4553 23.9457C49.1924 24.089 50.0643 24.0827 50.5678 24.0627C50.7116 24.057 50.8523 24.0182 50.9788 23.9494C51.0774 23.8962 51.1657 23.8259 51.2396 23.7417L52.5806 22.1916C52.5112 22.2349 52.4327 22.2614 52.3513 22.2691C52.2699 22.2768 52.1878 22.2655 52.1116 22.236Z" fill="black"/>
    </g>
    <path d="M12.7343 33.3459C12.7452 33.3566 12.7592 33.3634 12.7743 33.3654C12.7894 33.3674 12.8047 33.3645 12.8179 33.357C12.7897 33.3575 12.7615 33.3538 12.7343 33.3459Z" fill="url(#paint1_linear_21_1)"/>
    <path d="M21.9617 18.3214C21.7988 18.2743 21.5661 18.1972 21.2863 18.0992C21.577 17.7245 21.7898 17.2952 21.9119 16.8367L21.8884 16.8457C21.8966 16.8176 21.9047 16.7904 21.9119 16.7614C21.375 16.98 20.781 16.6099 20.4026 16.1347C20.0241 15.6594 19.7687 15.0698 19.354 14.6327C19.1812 14.4588 18.9954 14.2983 18.7981 14.1529C18.6759 14.0622 18.5446 13.9597 18.3952 13.9551C18.1534 13.9479 17.9642 14.1855 17.7315 14.2554C17.5784 14.2899 17.4189 14.2839 17.2688 14.2381C16.6685 14.1003 16.0917 13.8454 15.4787 13.7783C15.1507 13.7377 14.8178 13.7753 14.5071 13.888C14.1993 14.005 14.0589 14.2381 13.8099 14.425C13.5383 14.6254 13.0077 14.6209 12.6917 14.6562C12.3082 14.7001 11.9221 14.7162 11.5364 14.7043C11.3147 14.6851 11.0914 14.6933 10.8717 14.7288C10.4127 14.8295 10.0442 15.195 9.70009 15.5451C9.60617 15.6243 9.53858 15.7303 9.50632 15.849C9.50191 15.8824 9.50191 15.9162 9.50632 15.9496C9.50286 16.0411 9.51859 16.1322 9.5525 16.2172C9.65842 16.532 9.80808 16.8303 9.99708 17.1033C10.1374 17.3047 10.3013 17.4943 10.381 17.7328C10.4188 17.8501 10.4386 17.9724 10.4398 18.0956C10.4359 18.2264 10.4223 18.3568 10.3991 18.4856C10.3383 18.8417 10.2384 19.19 10.1012 19.5241C10.016 19.6956 9.95739 19.8791 9.92736 20.0683C9.92477 20.107 9.92477 20.1458 9.92736 20.1844C9.90472 20.783 10.5078 21.2139 10.6246 21.8089C10.6342 21.8582 10.6399 21.9083 10.6418 21.9585C10.6291 22.3295 10.4181 22.6923 10.1066 22.8365C10.1338 22.8474 10.1619 22.8565 10.1899 22.8655C10.1631 22.8824 10.1353 22.8975 10.1066 22.9109C10.1637 22.9326 10.2216 22.9517 10.2805 22.9671C9.9265 23.276 9.62897 23.6443 9.40129 24.0555C8.35368 26.0092 1.25854 29.8358 1.25854 29.8358L1.36358 29.8957L1.27846 29.951C0.664566 30.3601 -0.776011 31.5528 0.526032 33.0611C0.526032 33.0611 1.54286 31.4539 2.25545 30.7691C2.28714 30.7383 2.31883 30.7102 2.34599 30.6839C2.36165 30.708 2.37215 30.7352 2.37682 30.7636C2.3815 30.792 2.38025 30.821 2.37316 30.849L7.03806 28.2232C7.03806 28.2232 8.69594 27.0604 9.15863 26.7983C9.48429 26.595 9.83869 26.4422 10.2099 26.3448L10.1555 26.3675C10.33 26.3194 10.5098 26.2938 10.6907 26.2913C11.5164 26.304 12.411 26.9098 12.7053 29.3089C13.1001 32.5215 12.9172 33.101 12.7904 33.1799C12.7748 33.1788 12.7593 33.1761 12.7442 33.1718C12.7481 33.1752 12.7524 33.1783 12.7569 33.1809C12.7397 33.1796 12.7227 33.1766 12.7062 33.1718C12.7153 33.1802 12.7264 33.1861 12.7385 33.1889C12.7505 33.1918 12.7631 33.1915 12.775 33.1881C12.7836 33.1907 12.7926 33.1915 12.8015 33.1904C12.8104 33.1893 12.8189 33.1864 12.8266 33.1818C12.8474 33.183 12.8683 33.183 12.8891 33.1818C12.8891 33.2114 12.887 33.2416 12.8828 33.2725C12.8764 33.2725 12.8456 33.2897 12.8828 33.2915C12.8728 33.4729 12.8737 33.6697 12.8828 33.8756C12.4726 33.8983 12.0624 33.9228 11.7057 33.9445L11.7374 33.7749L11.7518 33.6988C12.0669 33.6734 12.3657 33.5808 12.4011 33.3251C12.478 32.7627 11.7075 32.4625 11.0519 32.4253C10.3964 32.3881 6.4649 32.6503 6.4649 32.6503C6.4649 32.6503 5.87545 33.4149 7.74522 33.648C7.80075 33.677 7.8584 33.7072 7.91816 33.7387C8.65067 34.1568 9.64395 34.9268 10.1202 35.306L10.1863 35.3586L9.97263 35.5327C11.1289 35.7948 12.2471 40.221 12.8637 42.2445C13.4804 44.268 14.8295 44.1946 15.9477 43.8944C16.9953 43.6132 17.1248 40.5657 17.142 40.1829V40.1439L19.0054 42.4495L19.1467 42.6246C19.201 42.653 19.2547 42.6796 19.3079 42.7044C20.7186 43.3765 22.2768 42.0876 21.8341 40.6183C21.3859 39.1371 20.6905 36.9467 20.2269 36.0207C19.8385 35.2452 19.3368 33.9572 19.0326 33.1509C19.0721 33.135 19.1105 33.1166 19.1476 33.0956C19.1476 33.0956 19.1404 33.0593 19.1286 32.9931L19.1476 32.9831C19.1476 32.9831 18.6949 30.6503 18.675 28.9923C18.675 28.9633 18.675 28.9331 18.675 28.9016C18.675 28.8835 18.675 28.8653 18.675 28.8481C19.0118 28.771 19.2255 28.7411 19.2255 28.7411L19.2318 28.6685L19.1929 28.6767L19.3803 26.528C19.3803 26.528 20.0684 25.0614 19.5415 24.451C19.3813 24.2724 19.2743 24.0525 19.2327 23.8161C19.1422 23.2546 19.2327 22.3177 20.4596 21.5395C22.3484 20.3395 23.0854 19.3627 23.0854 19.3627C23.0854 19.3627 23.118 18.6625 21.9617 18.3214ZM18.2105 19.8126V18.8194C18.5609 18.8022 18.9185 18.843 19.2707 18.8194C19.4436 18.8073 19.615 18.7784 19.7823 18.7332L19.8674 18.7922C19.3521 19.1892 18.7968 19.5312 18.2105 19.8126ZM12.8547 35.3803C12.9932 35.4765 13.1327 35.5763 13.2694 35.6769C13.3545 36.1667 13.4297 36.5123 13.4351 36.5368C13.2788 36.1337 13.0845 35.7464 12.8547 35.3803Z" fill="url(#paint2_linear_21_1)"/>
    <path d="M15.8481 34.564L15.7666 35.0075L15.7042 35.3468L15.5901 35.9672L14.4836 36.7426C14.4836 36.7426 14.384 36.6574 14.2192 36.5222C13.7665 36.1486 12.813 35.3903 12.1131 34.9803C11.9333 34.8653 11.7386 34.7753 11.5345 34.7128L15.8481 34.564Z" fill="#FFBDC6"/>
    <path opacity="0.1" d="M15.8482 34.564L15.7667 35.0075C15.5228 35.0211 15.2781 35.0087 15.0369 34.9704L12.4554 35.0075C12.3332 35.0003 12.2191 34.9903 12.1123 34.9794C11.9324 34.8644 11.7378 34.7744 11.5337 34.7119L15.8482 34.564Z" fill="black"/>
    <path d="M15.0369 34.8978C15.0369 34.8978 16.328 35.1191 16.4014 34.5649C16.4747 34.0107 15.7377 33.7187 15.112 33.677C14.4863 33.6353 10.7224 33.9001 10.7224 33.9001C10.7224 33.9001 10.0587 34.7862 12.4554 34.9341L15.0369 34.8978Z" fill="#7679B4"/>
    <path opacity="0.1" d="M15.8481 34.564L15.7666 35.0075L15.7042 35.3468L15.5901 35.9672L14.4836 36.7426C14.4836 36.7426 14.384 36.6574 14.2192 36.5222C13.7665 36.1486 12.813 35.3903 12.1131 34.9803C11.9333 34.8653 11.7386 34.7753 11.5345 34.7128L15.8481 34.564Z" fill="black"/>
    <path opacity="0.1" d="M15.8482 34.564L15.7667 35.0075C15.5228 35.0211 15.2781 35.0087 15.0369 34.9704L12.4554 35.0075C12.3332 35.0003 12.2191 34.9903 12.1123 34.9794C11.9324 34.8644 11.7378 34.7744 11.5337 34.7119L15.8482 34.564Z" fill="black"/>
    <path opacity="0.1" d="M15.0369 34.8978C15.0369 34.8978 16.328 35.1191 16.4014 34.5649C16.4747 34.0107 15.7377 33.7187 15.112 33.677C14.4863 33.6353 10.7224 33.9001 10.7224 33.9001C10.7224 33.9001 10.0587 34.7862 12.4554 34.9341L15.0369 34.8978Z" fill="black"/>
    <path d="M17.8574 16.6843H11.109V24.7004H17.8574V16.6843Z" fill="#A66477"/>
    <path opacity="0.1" d="M17.8574 16.6843H11.109V24.7004H17.8574V16.6843Z" fill="black"/>
    <path d="M3.19896 30.4081C3.08759 30.4363 2.94634 30.5433 2.78788 30.6993C2.10607 31.3741 1.13362 32.9568 1.13362 32.9568C-0.112289 31.4711 1.26672 30.2966 1.85798 29.893C2.00104 29.795 2.09702 29.7424 2.09702 29.7424L3.19896 30.4081Z" fill="#FFBDC6"/>
    <path d="M15.7748 19.2148C15.7748 19.2148 16.1071 21.5422 17.2498 22.0964C18.3925 22.6506 15.7748 23.6846 15.7748 23.6846L12.1974 22.3549C12.1974 22.3549 14.2256 21.6901 13.82 19.7318L15.7748 19.2148Z" fill="#FFBDC6"/>
    <path d="M11.9429 33.2153L11.8614 33.6589L11.7989 33.9981L11.6849 34.6185L10.5784 35.394C10.5784 35.394 10.4788 35.3087 10.314 35.1736C9.86128 34.7999 8.90783 34.0416 8.20792 33.6316C8.02805 33.5166 7.83341 33.4266 7.62933 33.3641L11.9429 33.2153Z" fill="#FFBDC6"/>
    <path opacity="0.1" d="M11.943 33.2153L11.8615 33.6589C11.6176 33.6725 11.3729 33.66 11.1317 33.6217L8.55023 33.6589C8.42799 33.6516 8.31391 33.6416 8.20706 33.6308C8.0272 33.5157 7.83256 33.4257 7.62848 33.3632L11.943 33.2153Z" fill="black"/>
    <path d="M11.128 33.5482C11.128 33.5482 12.4192 33.7695 12.4926 33.2153C12.5659 32.6611 11.8289 32.3655 11.2014 32.3292C10.5739 32.2929 6.81265 32.5505 6.81265 32.5505C6.81265 32.5505 6.14895 33.4366 8.54569 33.5845L11.128 33.5482Z" fill="#7679B4"/>
    <path opacity="0.1" d="M11.7954 33.999L11.6813 34.6194L10.5748 35.3949C10.5748 35.3949 10.4752 35.3096 10.3104 35.1745L11.7736 33.9727L11.7954 33.999Z" fill="black"/>
    <path d="M19.096 42.4559C19.0453 42.4311 18.994 42.4048 18.9421 42.377L18.8072 42.2046L17.0253 39.9371V39.977C17.0135 40.3534 16.8849 43.3556 15.8835 43.6323C14.8141 43.9279 13.523 44.0014 12.9335 42.0069C12.3441 40.0124 11.2738 35.6534 10.1674 35.3949L11.808 34.0461C11.808 34.0461 12.8946 35.316 13.3383 36.5386C13.322 36.4606 12.5713 32.9496 13.1907 32.3292H18.5745C18.5745 32.3292 19.4039 34.7001 19.9761 35.8756C20.4198 36.788 21.0853 38.9449 21.5154 40.4042C21.941 41.8482 20.4542 43.118 19.096 42.4559Z" fill="#7679B4"/>
    <path opacity="0.1" d="M18.9457 32.9931C18.1154 33.4856 14.4646 33.2851 13.2748 33.2053L12.9516 33.1817C12.9163 33.1817 12.957 33.1618 12.957 33.1618L12.9905 32.8262L13.8752 30.5732L18.6143 27.8232C18.5183 28.1125 18.4857 28.556 18.4939 29.0649C18.5174 30.6957 18.9457 32.9931 18.9457 32.9931Z" fill="black"/>
    <path d="M18.9457 32.8834C18.1154 33.3759 14.4646 33.1754 13.2749 33.0956L12.9516 33.072H12.8982L12.9571 33.0566L13.2486 32.9795L13.8752 30.4671L18.6143 27.7153C18.5183 28.0046 18.4857 28.4481 18.4939 28.957C18.5174 30.585 18.9457 32.8834 18.9457 32.8834Z" fill="#F2F1F2"/>
    <path opacity="0.1" d="M18.4939 28.9533C17.5305 29.1755 15.4099 29.8295 14.595 31.4022C14.0517 32.4525 13.599 32.9033 13.2758 33.092L12.9525 33.0684L12.9579 33.0484L13.2495 32.9713L13.8761 30.4589L18.6152 27.7071C18.5174 28.0046 18.4857 28.4445 18.4939 28.9533Z" fill="black"/>
    <path opacity="0.1" d="M2.09249 29.7433L3.19896 30.4081C3.08759 30.4363 2.94634 30.5433 2.78788 30.6993C2.69734 30.4272 2.11604 30.0535 1.85345 29.8939C1.99652 29.7959 2.09249 29.7433 2.09249 29.7433Z" fill="black"/>
    <path opacity="0.1" d="M12.759 33.1148C12.7465 33.1219 12.7321 33.1247 12.7178 33.1228C12.7036 33.121 12.6904 33.1146 12.68 33.1046C12.7057 33.112 12.7323 33.1154 12.759 33.1148Z" fill="black"/>
    <path d="M15.2578 21.9485C15.2578 21.9485 14.2618 22.0592 13.561 21.3209C13.561 21.3209 10.611 22.1708 9.61503 24.0918C8.61903 26.0128 1.83356 29.7805 1.83356 29.7805C1.83356 29.7805 3.01065 30.4453 2.9029 30.7782L7.36497 28.1923C7.36497 28.1923 8.95042 27.0468 9.39319 26.7883C9.83596 26.5298 12.2698 24.9416 12.7859 29.2635C13.302 33.5854 12.7859 33.0729 12.7859 33.0729C12.7859 33.0729 13.5239 33.3314 14.5968 31.2589C15.6698 29.1864 18.9856 28.7102 18.9856 28.7102L19.1667 26.5334C19.1667 26.5334 19.8249 25.0895 19.3206 24.4872C19.1668 24.31 19.0647 24.0938 19.0254 23.8623C18.9412 23.309 19.0254 22.3866 20.2025 21.6202C22.0134 20.4411 22.7106 19.4779 22.7106 19.4779C22.7106 19.4779 22.7477 18.7758 21.6413 18.4439C20.5348 18.1119 16.0356 16.3015 16.0356 16.3015L15.888 16.9292L19.4283 19.4416C19.4283 19.4416 17.6582 20.8819 16.2592 20.8456C16.2538 20.8393 16.5119 21.9114 15.2578 21.9485Z" fill="#565388"/>
    <path opacity="0.1" d="M15.9414 20.228C15.8542 19.9303 15.7861 19.6274 15.7376 19.321L13.7828 19.8416C13.8683 20.2153 13.853 20.605 13.7384 20.9708C14.1379 21.0776 14.56 21.064 14.9518 20.9317C15.3437 20.7994 15.6879 20.5543 15.9414 20.2271V20.228Z" fill="black"/>
    <path d="M14.3179 20.9327C15.4791 20.9327 16.4204 19.9898 16.4204 18.8266C16.4204 17.6635 15.4791 16.7206 14.3179 16.7206C13.1568 16.7206 12.2155 17.6635 12.2155 18.8266C12.2155 19.9898 13.1568 20.9327 14.3179 20.9327Z" fill="#FFBDC6"/>
    <path opacity="0.1" d="M15.4353 14.0368C16.0184 14.103 16.5734 14.3542 17.1475 14.4903C17.2909 14.5353 17.4437 14.5413 17.5902 14.5075C17.813 14.4386 17.9941 14.2046 18.2241 14.2118C18.3662 14.2118 18.4957 14.3134 18.6098 14.4068C18.7988 14.5504 18.9765 14.7084 19.1413 14.8794C19.537 15.3102 19.7832 15.8907 20.1445 16.3587C20.5058 16.8267 21.0753 17.1913 21.5887 16.9764C21.2401 18.3369 20.0956 19.3772 18.8588 19.4615C18.3653 19.4951 17.8628 19.3926 17.382 19.5377C17.2628 19.5864 17.1371 19.617 17.0089 19.6284C16.7373 19.6284 16.5127 19.3754 16.3407 19.1296C15.9387 18.5509 15.6163 17.8942 15.1636 17.3673C15.0142 17.1931 14.8377 17.0271 14.6267 16.9954C14.4157 16.9637 14.221 17.0643 14.0327 17.1623C13.7221 17.3237 13.4043 17.4906 13.1635 17.7663C12.9226 18.0421 12.7705 18.4548 12.8701 18.8284C12.9235 19.0298 13.0467 19.2112 13.0512 19.4225C13.0512 19.7581 12.7596 20.0039 12.7008 20.3295C12.6878 20.467 12.683 20.6051 12.6863 20.7431C12.66 21.1912 12.3685 21.5594 12.0624 21.8397C11.9438 21.9494 11.8116 22.0664 11.7772 22.2361C11.7537 22.3512 11.7772 22.4737 11.7618 22.5907C11.7175 22.8818 11.4277 23.0288 11.1715 23.0669C10.8722 23.1108 10.5666 23.0745 10.2859 22.9617C10.6481 22.7921 10.8645 22.3086 10.7812 21.8733C10.6671 21.2737 10.0659 20.8438 10.1166 20.2325C10.145 20.0453 10.2011 19.8634 10.2832 19.6928C10.4144 19.363 10.5098 19.02 10.5675 18.6697C10.6268 18.4001 10.6209 18.1203 10.5503 17.8534C10.4734 17.6185 10.3167 17.4317 10.1827 17.233C10.0012 16.963 9.85802 16.669 9.75716 16.3596C9.72061 16.2681 9.70663 16.1692 9.71641 16.0712C9.74561 15.9555 9.80868 15.8513 9.8975 15.7719C10.2271 15.4263 10.5802 15.0662 11.0185 14.9664C11.2278 14.9315 11.4408 14.9233 11.6523 14.9419C12.0214 14.9537 12.391 14.9379 12.7578 14.8948C13.0603 14.8594 13.5727 14.8639 13.8281 14.6662C14.0662 14.4848 14.2011 14.2535 14.4954 14.1374C14.7957 14.0273 15.1185 13.9927 15.4353 14.0368Z" fill="black"/>
    <path opacity="0.1" d="M16.6042 35.7831C16.6042 35.7831 17.8211 38.1839 17.4526 38.9231L16.6042 35.7831Z" fill="black"/>
    <path opacity="0.1" d="M18.8108 42.2046L17.0289 39.9371V39.977C17.0289 39.977 16.9256 39.2441 17.2652 39.4908C18.0086 40.0296 19.1983 40.913 19.2237 41.0654C19.249 41.2178 18.9828 41.8291 18.8108 42.2046Z" fill="black"/>
    <g opacity="0.1">
      <path opacity="0.1" d="M16.2891 20.8393C16.2891 20.8393 16.4394 21.4633 15.9532 21.7753C16.702 21.6465 16.7346 21.0633 16.712 20.8094C16.5722 20.8321 16.4307 20.8421 16.2891 20.8393Z" fill="black"/>
      <path opacity="0.1" d="M2.27722 29.6327C2.27722 29.6327 9.06269 25.865 10.0587 23.944C10.7731 22.5653 12.4944 21.739 13.4089 21.3817C12.7415 21.6057 10.496 22.4646 9.65214 24.0918C8.65614 26.0128 1.87067 29.7805 1.87067 29.7805L2.27722 29.6327Z" fill="black"/>
      <path opacity="0.1" d="M17.6093 20.5463C18.7637 20.1835 19.8675 19.2883 19.8675 19.2883L16.3272 16.7759L16.4077 16.4313L16.0691 16.2952L15.9215 16.9229L19.4618 19.4353C18.8937 19.8826 18.2712 20.256 17.6093 20.5463Z" fill="black"/>
      <path opacity="0.1" d="M17.6319 29.0595C18.0843 28.9048 18.5485 28.7874 19.02 28.7085L19.0263 28.6368C18.5513 28.7413 18.0851 28.8826 17.6319 29.0595Z" fill="black"/>
      <path opacity="0.1" d="M13.341 32.9296H13.3084C13.296 32.9365 13.2818 32.9393 13.2678 32.9375C13.2538 32.9357 13.2407 32.9295 13.2305 32.9197C13.2558 32.9268 13.2821 32.9301 13.3084 32.9296C13.4297 32.8589 13.6117 32.3074 13.2305 29.1148C12.8231 25.7063 11.224 25.9738 10.3484 26.3657C11.243 26.1189 12.4745 26.3321 12.8249 29.2626C13.2061 32.4553 13.0241 33.0076 12.9027 33.0775C13.06 33.0716 13.2122 33.0203 13.341 32.9296Z" fill="black"/>
      <path opacity="0.1" d="M12.9039 33.0786C12.8772 33.0791 12.8505 33.0757 12.8248 33.0684C12.8352 33.0784 12.8485 33.0848 12.8627 33.0866C12.8769 33.0885 12.8913 33.0857 12.9039 33.0786Z" fill="black"/>
    </g>
    <path d="M15.4353 13.9651C16.0184 14.0313 16.5734 14.2826 17.1475 14.4186C17.2909 14.4637 17.4437 14.4696 17.5902 14.4359C17.813 14.3669 17.9941 14.1329 18.2241 14.1402C18.3662 14.1402 18.4957 14.2418 18.6098 14.3352C18.7988 14.4788 18.9765 14.6368 19.1413 14.8077C19.537 15.2386 19.7832 15.819 20.1445 16.2871C20.5058 16.7551 21.0753 17.1197 21.5887 16.9047C21.2401 18.2652 20.0956 19.3056 18.8588 19.3899C18.3653 19.4235 17.8628 19.321 17.382 19.4661C17.2628 19.5148 17.1371 19.5453 17.0089 19.5568C16.7373 19.5568 16.5127 19.3037 16.3407 19.0579C15.9387 18.4793 15.6163 17.8226 15.1636 17.2956C15.0142 17.1215 14.8377 16.9555 14.6267 16.9238C14.4157 16.892 14.221 16.9927 14.0327 17.0907C13.7221 17.2521 13.4043 17.419 13.1635 17.6947C12.9226 17.9704 12.7705 18.3831 12.8701 18.7568C12.9235 18.9582 13.0467 19.1396 13.0512 19.3509C13.0512 19.6865 12.7596 19.9323 12.7008 20.2579C12.6878 20.3954 12.683 20.5335 12.6863 20.6715C12.66 21.1196 12.3685 21.4878 12.0624 21.7681C11.9438 21.8778 11.8116 21.9948 11.7772 22.1644C11.7537 22.2796 11.7772 22.4021 11.7618 22.5191C11.7175 22.8102 11.4277 22.9571 11.1715 22.9952C10.8722 23.0392 10.5666 23.0029 10.2859 22.89C10.6481 22.7204 10.8645 22.237 10.7812 21.8016C10.6671 21.2021 10.0659 20.7722 10.1166 20.1609C10.145 19.9737 10.2011 19.7918 10.2832 19.6212C10.4144 19.2914 10.5098 18.9484 10.5675 18.5981C10.6268 18.3285 10.6209 18.0486 10.5503 17.7818C10.4734 17.5469 10.3167 17.36 10.1827 17.1614C10.0012 16.8914 9.85802 16.5974 9.75716 16.288C9.72061 16.1965 9.70663 16.0976 9.71641 15.9995C9.74561 15.8839 9.80868 15.7797 9.8975 15.7002C10.2271 15.3547 10.5802 14.9946 11.0185 14.8948C11.2278 14.8599 11.4408 14.8516 11.6523 14.8703C12.0214 14.8821 12.391 14.8663 12.7578 14.8232C13.0603 14.7878 13.5727 14.7923 13.8281 14.5946C14.0662 14.4132 14.2011 14.1819 14.4954 14.0658C14.7957 13.9557 15.1185 13.9211 15.4353 13.9651Z" fill="#A66477"/>
    <path d="M75.4696 9.23782C75.4696 9.22603 75.4696 9.21514 75.4696 9.20426C75.4696 9.19337 75.4696 9.18068 75.4641 9.16979H75.4497C75.4497 9.1453 75.4497 9.12081 75.4497 9.09451C75.4134 8.25372 74.2526 6.4642 73.7872 6.98664C73.3798 7.44558 73.9946 8.60654 74.3079 9.12898L74.3359 9.17614L74.3206 9.16616C74.3206 9.16616 73.0248 13.0372 72.8718 13.1878C72.7188 13.3384 71.6522 16.3823 70.246 16.7251C69.968 16.7913 69.7372 16.8512 69.5434 16.9065L69.5588 16.8548C69.6493 16.5582 69.7607 16.278 69.806 15.9478C69.8512 15.6177 69.806 15.2177 69.6394 15.0571C69.5579 14.9773 69.4583 14.9664 69.3913 14.8395C69.3478 14.7281 69.3245 14.6098 69.3225 14.4903L69.2029 13.0227L69.2862 12.9973C69.7897 12.8359 70.2777 12.4531 70.3347 11.938C70.3172 11.9446 70.2994 11.9504 70.2813 11.9552C70.288 11.9252 70.2931 11.895 70.2967 11.8645C69.8739 12.0314 69.4818 11.5924 69.0744 11.3956C68.4034 11.0663 67.6365 11.3765 66.9438 11.4518C66.1588 11.538 65.4136 11.2115 64.6114 11.2704C64.1749 11.304 63.6896 11.6006 63.7132 12.0314C63.7267 12.2681 63.8943 12.4686 63.9631 12.6953C64.1369 13.244 63.7503 13.7946 63.4116 14.2626C63.1889 14.5701 62.9752 14.9447 62.9372 15.3057C62.1576 14.4894 61.3146 13.5461 61.2168 13.1914L58.9613 9.32035C58.9613 9.32035 58.9079 9.37749 58.8219 9.46185C58.8083 9.42012 58.792 9.37115 58.7739 9.32217C58.486 8.51403 57.6711 6.55581 56.6379 6.91498C55.6048 7.27416 57.0662 9.28135 57.7019 10.0813L57.7924 10.192C57.7391 10.2051 57.6832 10.2026 57.6312 10.1847L60.1466 14.5066C60.1466 14.5066 60.6038 15.3338 61.0231 15.5587C61.0231 15.5587 64.1478 19.5051 64.1858 20.2942C64.2238 21.0833 65.5911 23.1884 65.5911 23.1884C65.5911 23.1884 66.0483 26.6087 65.2479 27.2101H65.2579H65.2642H65.2742H65.2832H65.3013H65.3131H65.3249H65.3403H65.3529H65.3711H65.3801C65.3421 27.2472 65.3031 27.2881 65.2633 27.3325C64.6702 27.991 63.9124 29.4023 64.9482 31.8022C66.4721 35.3395 66.7012 36.7254 66.7012 36.7254C66.7012 36.7254 63.8037 36.876 63.2333 36.9884C62.728 37.0882 60.7641 37.1581 60.315 37.1698C60.1547 36.983 59.6812 36.5694 59.0419 37.1698C58.2415 37.9218 57.6702 40.4351 57.6702 40.4351C57.6702 40.4351 57.365 42.4649 58.3945 41.938C58.3945 41.938 59.6142 40.2464 59.9564 40.1711C60.1267 40.1339 60.3068 39.8827 60.4445 39.6405L60.4517 39.6451C60.4599 39.6451 60.4934 39.6269 60.5477 39.6052C60.8012 39.5045 61.4993 39.2623 62.0498 39.3829C62.3514 39.4491 63.6443 39.4646 64.9998 39.4609C64.6938 40.1956 64.1451 42.0912 64.1451 42.0912C64.1451 42.0912 63.916 43.859 64.6766 43.7864C65.2198 43.7329 66.0529 42.3425 66.4875 41.5489C66.8026 41.3176 67.7053 40.4886 68.3726 40.5512L72.8691 38.8224C72.8691 38.8224 73.9357 38.2211 73.3644 36.2293C72.9117 34.6457 71.6232 31.404 71.1143 30.1406L71.099 30.1079C70.9758 29.8023 70.9016 29.6209 70.9016 29.6209C70.6925 29.0441 70.5554 28.4436 70.4932 27.8332C70.4887 27.7851 70.4851 27.7361 70.4814 27.6881C70.5444 27.6616 70.6037 27.6271 70.658 27.5856C70.658 27.5856 70.2388 23.339 70.658 22.8873L70.6652 22.8791V22.8737L70.6725 22.8646L70.6888 22.8438L70.7087 22.8184C70.7313 22.7884 70.7585 22.7512 70.7893 22.7059C71.0292 22.354 71.4765 21.5504 71.348 20.6016C71.3425 20.5605 71.3359 20.5191 71.328 20.4774C71.2788 20.2201 71.1908 19.9718 71.0673 19.7409C71.0491 19.6448 71.0379 19.5475 71.0338 19.4498C71.0338 19.3944 71.0338 19.3337 71.0338 19.2684V19.2575C71.0338 19.2399 71.0338 19.2224 71.0338 19.2049V19.1922C71.0338 19.1495 71.041 19.1015 71.0473 19.0616V19.0452C71.0473 19.0289 71.0501 19.0123 71.0555 18.9953V18.9745C71.0555 18.9582 71.0627 18.9418 71.0664 18.9255V18.9083C71.0718 18.8865 71.0772 18.8647 71.0845 18.843V18.8321C71.0899 18.8139 71.0959 18.7961 71.1026 18.7786L71.1107 18.7577L71.1288 18.7142L71.1379 18.6924C71.1451 18.6761 71.1533 18.6598 71.1614 18.6434L71.1678 18.6298C71.1786 18.6099 71.1901 18.5902 71.2022 18.5709L71.2121 18.5554L71.242 18.5128L71.2565 18.4938L71.2882 18.4557L71.3027 18.4394C71.319 18.4221 71.3353 18.4049 71.3534 18.3886C71.8487 17.9351 74.0589 14.5928 74.0589 14.5928C74.0589 14.5928 74.5922 13.8409 74.5922 13.3529C74.6221 13.342 75.5646 10.1947 75.4696 9.23782ZM69.5361 37.3322C69.4818 36.817 69.4275 36.1785 69.3777 35.5182L70.2397 36.8642C70.2397 36.8642 70.1582 37.2742 69.5361 37.3322Z" fill="url(#paint3_linear_21_1)"/>
    <path d="M60.5486 37.0474C60.5486 37.0474 60.0325 36.2311 59.2574 36.9739C58.4823 37.7168 57.93 40.1874 57.93 40.1874C57.93 40.1874 57.6348 42.1828 58.6308 41.6649C58.6308 41.6649 59.8079 40.0024 60.143 39.9289C60.478 39.8555 60.8438 38.9312 60.8438 38.9312L60.5486 37.0474Z" fill="#493545"/>
    <path d="M66.08 39.0419C66.08 39.0419 65.3792 38.709 65.1582 38.9684C64.9373 39.2278 64.1994 41.8128 64.1994 41.8128C64.1994 41.8128 63.9784 43.5125 64.7155 43.4381C65.4525 43.3637 66.7437 40.7026 66.7437 40.7026L66.08 39.0419Z" fill="#493545"/>
    <path opacity="0.05" d="M66.08 39.0419C66.08 39.0419 65.3792 38.709 65.1582 38.9684C64.9373 39.2278 64.1994 41.8128 64.1994 41.8128C64.1994 41.8128 63.9784 43.5125 64.7155 43.4381C65.4525 43.3637 66.7437 40.7026 66.7437 40.7026L66.08 39.0419Z" fill="black"/>
    <path d="M68.5139 34.018L70.0993 36.4932C70.0993 36.4932 69.9889 37.0474 69.03 36.9368L65.7477 39.0056C65.7477 39.0056 65.4625 41.5244 66.3743 41.2958C66.5219 41.2586 67.5514 40.1875 68.292 40.2618L72.6445 38.5621C72.6445 38.5621 73.6768 37.9707 73.1235 36.0134C72.5703 34.0561 70.7413 29.5175 70.7413 29.5175L67.8502 31.1374L68.5139 34.018Z" fill="#3E3D77"/>
    <path opacity="0.05" d="M68.5139 34.018L70.0993 36.4932C70.0993 36.4932 69.9889 37.0474 69.03 36.9368L65.7477 39.0056C65.7477 39.0056 65.4625 41.5244 66.3743 41.2958C66.5219 41.2586 67.5514 40.1875 68.292 40.2618L72.6445 38.5621C72.6445 38.5621 73.6768 37.9707 73.1235 36.0134C72.5703 34.0561 70.7413 29.5175 70.7413 29.5175L67.8502 31.1374L68.5139 34.018Z" fill="black"/>
    <path d="M69.5099 37.6751C69.7308 39.0791 68.4777 39.1897 68.4777 39.1897C68.4777 39.1897 62.8349 39.3004 62.1712 39.1526C61.5075 39.0047 60.6219 39.4111 60.6219 39.4111C59.4783 38.709 60.401 36.973 60.401 36.973C60.401 36.973 62.7615 36.8996 63.3148 36.7916C63.868 36.6837 66.6704 36.5304 66.6704 36.5304C66.6704 36.5304 66.4494 35.1636 64.9735 31.6916C63.9712 29.3333 64.7019 27.9456 65.2787 27.2989C65.4259 27.1273 65.5962 26.9771 65.7848 26.8527L70.3212 27.074C70.3163 27.3032 70.3248 27.5324 70.3465 27.7606C70.4241 28.544 70.6274 29.3097 70.9486 30.0281C70.6906 30.0281 69.0309 31.58 69.0309 31.58C69.0309 31.58 69.288 36.2719 69.5099 37.6751Z" fill="#3E3D77"/>
    <path opacity="0.1" d="M60.7324 37.1209C60.7324 37.1209 63.0929 37.0474 63.6462 36.9395C64.1994 36.8315 67.0018 36.681 67.0018 36.681C67.0018 36.681 66.7808 35.3141 65.305 31.8421C64.3026 29.4839 65.0333 28.0962 65.6101 27.4495C65.7573 27.2779 65.9276 27.1277 66.1162 27.0032L70.3194 27.2082C70.3194 27.1647 70.3194 27.1175 70.3194 27.0767L65.783 26.8554C65.5944 26.9799 65.4241 27.1301 65.2769 27.3017C64.7028 27.9493 63.9694 29.3361 64.9717 31.6943C66.4513 35.1635 66.6704 36.5304 66.6704 36.5304C66.6704 36.5304 63.8635 36.6782 63.3148 36.7889C62.7661 36.8995 60.401 36.9703 60.401 36.9703C60.401 36.9703 59.4793 38.7072 60.6219 39.4119C60.6219 39.4119 60.6563 39.3956 60.7125 39.372C59.9528 38.5893 60.7324 37.1209 60.7324 37.1209Z" fill="black"/>
    <path d="M67.4808 13.2939H65.1945V19.0933H67.4808V13.2939Z" fill="#493545"/>
    <path opacity="0.1" d="M67.4808 13.2939H65.1945V19.0933H67.4808V13.2939Z" fill="black"/>
    <path d="M68.7883 12.4431C68.867 12.4649 68.9558 12.4676 69.0092 12.5765C69.0424 12.6635 69.0604 12.7555 69.0626 12.8486L69.2066 14.6408C69.2086 14.7582 69.2313 14.8742 69.2736 14.9837C69.3342 15.1052 69.4348 15.1197 69.5135 15.1977C69.672 15.3555 69.7182 15.751 69.6747 16.073C69.6312 16.395 69.5217 16.6707 69.4357 16.9618C69.3125 17.3791 69.231 17.848 69.0581 18.1999C68.8851 18.5518 68.5709 18.7441 68.3681 18.4484C68.1653 18.1527 68.1925 17.5559 68.1544 17.067C68.091 16.2507 67.7732 15.5469 67.7515 14.7252C67.7334 14.0603 67.9118 13.4399 68.0231 12.8096C68.1028 12.3769 68.1073 11.8518 68.2232 11.4627C68.3201 11.9252 68.5048 12.3651 68.7883 12.4431Z" fill="#493545"/>
    <path opacity="0.1" d="M68.7883 12.4431C68.867 12.4649 68.9558 12.4676 69.0092 12.5765C69.0424 12.6635 69.0604 12.7555 69.0626 12.8486L69.2066 14.6408C69.2086 14.7582 69.2313 14.8742 69.2736 14.9837C69.3342 15.1052 69.4348 15.1197 69.5135 15.1977C69.672 15.3555 69.7182 15.751 69.6747 16.073C69.6312 16.395 69.5217 16.6707 69.4357 16.9618C69.3125 17.3791 69.231 17.848 69.0581 18.1999C68.8851 18.5518 68.5709 18.7441 68.3681 18.4484C68.1653 18.1527 68.1925 17.5559 68.1544 17.067C68.091 16.2507 67.7732 15.5469 67.7515 14.7252C67.7334 14.0603 67.9118 13.4399 68.0231 12.8096C68.1028 12.3769 68.1073 11.8518 68.2232 11.4627C68.3201 11.9252 68.5048 12.3651 68.7883 12.4431Z" fill="black"/>
    <path d="M59.1098 9.89541L58.2252 10.6346C58.2252 10.6346 58.1202 10.5113 57.9635 10.3117C57.3487 9.52535 55.9353 7.55262 56.934 7.19979C57.9328 6.84697 58.7223 8.77072 59.0012 9.56526C59.0718 9.76661 59.1098 9.89541 59.1098 9.89541Z" fill="#C77485"/>
    <path d="M75.0784 9.6369C74.7099 10.1911 74.1938 9.6369 74.1938 9.6369C74.1938 9.6369 74.1277 9.53803 74.0344 9.3784C73.7311 8.86413 73.1362 7.72403 73.5301 7.27234C73.9828 6.75626 75.1047 8.51766 75.1391 9.34393C75.1497 9.44553 75.1285 9.54793 75.0784 9.6369Z" fill="#C77485"/>
    <path d="M66.0058 15.6213C66.0058 15.6213 66.7437 17.9858 66.5219 18.687C66.3001 19.3881 68.1083 20.2044 68.1083 20.2044H70.1736C70.1736 20.2044 70.9115 18.6897 70.7268 18.2461C70.5421 17.8026 68.9567 17.4707 68.9567 17.4707C68.9567 17.4707 68.0349 17.4707 68.072 14.9955L66.0058 15.6213Z" fill="#C77485"/>
    <path opacity="0.1" d="M59.1098 9.8954L58.2252 10.6346C58.2252 10.6346 58.1202 10.5113 57.9635 10.3117C58.285 10.2546 58.7839 9.78474 59.0021 9.56525C59.0718 9.7666 59.1098 9.8954 59.1098 9.8954Z" fill="black"/>
    <path opacity="0.1" d="M75.0784 9.6369C74.7099 10.1911 74.1938 9.6369 74.1938 9.6369C74.1938 9.6369 74.1277 9.53804 74.0344 9.3784L74.0462 9.34122C74.2852 9.51264 75.0286 9.36661 75.1391 9.34122C75.1503 9.44371 75.1291 9.54715 75.0784 9.6369Z" fill="black"/>
    <path opacity="0.1" d="M70.3447 27.7597C69.2038 28.2812 65.4969 27.3525 65.2742 27.2971C65.4213 27.1255 65.5917 26.9753 65.7803 26.8509L70.3166 27.0722C70.3126 27.3017 70.322 27.5313 70.3447 27.7597Z" fill="black"/>
    <path d="M66.4857 17.653C66.4857 17.653 65.601 17.9487 64.347 16.8031C64.347 16.8031 61.5401 14.0322 61.359 13.3674L59.1859 9.55798C59.1859 9.55798 58.2641 10.5557 57.8947 10.4078L60.3286 14.6562C60.3286 14.6562 60.7713 15.4725 61.177 15.6902C61.177 15.6902 64.2012 19.5695 64.2374 20.345C64.2736 21.1204 65.6001 23.1975 65.6001 23.1975C65.6001 23.1975 66.0429 26.5588 65.2678 27.1502C65.2678 27.1502 69.5823 28.2586 70.5041 27.5193C70.5041 27.5193 70.0984 23.3471 70.5041 22.9018C70.5041 22.9018 71.7581 21.4243 70.9097 19.7989C70.9097 19.7989 70.7286 18.9128 71.2049 18.4693C71.6812 18.0258 73.8235 14.7379 73.8235 14.7379C73.8235 14.7379 74.3396 13.9987 74.3396 13.5189C74.3396 13.5189 75.2985 10.2682 75.1545 9.4183C75.1545 9.4183 74.3061 9.5997 74.048 9.4183C74.048 9.4183 72.794 13.2277 72.6464 13.371C72.4988 13.5143 71.4693 16.5111 70.1021 16.8439C68.7348 17.1768 68.5166 17.3237 68.5166 17.3237C68.5166 17.3237 71.1714 18.9863 69.8811 19.7246C68.5908 20.4629 66.4857 17.653 66.4857 17.653Z" fill="#FFAAC4"/>
    <path opacity="0.1" d="M68.1617 16.19C68.1179 15.842 68.1 15.4912 68.1083 15.1406L66.0429 15.7682C66.0973 15.9061 66.1405 16.048 66.1724 16.1927C66.4087 16.297 66.7274 16.5437 67.0018 16.5437C67.4168 16.5573 67.8246 16.4329 68.1617 16.19Z" fill="black"/>
    <path d="M66.9646 16.434C68.0238 16.434 68.8824 15.5739 68.8824 14.5129C68.8824 13.452 68.0238 12.5919 66.9646 12.5919C65.9055 12.5919 65.0469 13.452 65.0469 14.5129C65.0469 15.5739 65.9055 16.434 66.9646 16.434Z" fill="#C77485"/>
    <path opacity="0.1" d="M64.6829 11.5534C64.261 11.5861 63.7901 11.8781 63.8137 12.3017C63.8263 12.5348 63.9857 12.7316 64.0554 12.9547C64.2229 13.4944 63.8499 14.0359 63.5221 14.4966C63.1943 14.9574 62.8883 15.5678 63.169 16.0558C63.249 16.1732 63.3354 16.2862 63.4279 16.3941C63.7747 16.863 63.7702 17.4961 63.9241 18.0593C64.1207 18.7799 64.5854 19.3977 65.2226 19.7857C65.8599 20.1737 66.6213 20.3024 67.3504 20.1454C67.0759 19.7945 66.939 19.3551 66.9656 18.9101C66.9864 18.5872 67.0905 18.2498 66.9656 17.9514C66.8044 17.5677 66.3317 17.4163 66.0882 17.0807C65.8446 16.7451 65.8609 16.2798 65.9786 15.8798C66.0963 15.4798 66.3 15.1089 66.3978 14.7007C66.422 14.5816 66.4522 14.4639 66.4884 14.3479C66.6586 13.8635 67.1675 13.5824 67.6655 13.4617C68.1635 13.3411 68.6868 13.3338 69.1731 13.1751C69.6593 13.0164 70.1319 12.6445 70.1881 12.1339C69.7788 12.2981 69.3994 11.8699 69.0046 11.6731C68.3545 11.3502 67.613 11.6541 66.9429 11.7285C66.1796 11.8137 65.4553 11.4972 64.6829 11.5534Z" fill="black"/>
    <path d="M64.6458 11.4799C64.2238 11.5126 63.753 11.8046 63.7766 12.2282C63.7892 12.4613 63.9486 12.6581 64.0183 12.8812C64.1858 13.4209 63.8128 13.9624 63.485 14.4231C63.1572 14.8839 62.8512 15.4943 63.1319 15.9823C63.2119 16.0998 63.2983 16.2127 63.3908 16.3206C63.7376 16.7895 63.7331 17.4226 63.887 17.9858C64.0836 18.7064 64.5483 19.3242 65.1855 19.7122C65.8228 20.1002 66.5842 20.2289 67.3132 20.0719C67.0388 19.721 66.9019 19.2816 66.9284 18.8366C66.9493 18.5137 67.0534 18.1763 66.9284 17.8779C66.7673 17.4942 66.2946 17.3428 66.051 17.0072C65.8075 16.6716 65.8238 16.2063 65.9415 15.8063C66.0592 15.4063 66.2629 15.0354 66.3607 14.6272C66.3848 14.5081 66.4151 14.3904 66.4513 14.2744C66.6215 13.7901 67.1303 13.5089 67.6283 13.3882C68.1263 13.2676 68.6497 13.2604 69.1359 13.1016C69.6221 12.9429 70.0948 12.571 70.1509 12.0604C69.7417 12.2246 69.3623 11.7965 68.9675 11.5996C68.3174 11.2767 67.5758 11.5806 66.9058 11.655C66.1443 11.7393 65.4227 11.4191 64.6458 11.4799Z" fill="#493545"/>
    <path opacity="0.1" d="M68.8643 18.7804C68.8643 18.7804 69.6321 19.467 69.7833 19.7699L68.8643 18.7804Z" fill="black"/>
    <path opacity="0.1" d="M70.5258 22.881C70.5258 22.881 69.5669 22.881 69.1242 22.9916C68.6814 23.1023 67.6121 22.9916 67.6121 22.9916" fill="black"/>
    <g opacity="0.1">
      <path opacity="0.1" d="M69.8784 19.7218C69.7957 19.7692 69.7062 19.8035 69.6131 19.8234C69.8536 19.8768 70.1053 19.8407 70.3212 19.7218C71.6124 18.9826 68.9566 17.321 68.9566 17.321H68.5139C68.5139 17.321 71.1696 18.9835 69.8784 19.7218Z" fill="black"/>
      <path opacity="0.1" d="M75.1608 9.4827C75.1608 9.45912 75.1554 9.43645 75.1518 9.41559C75.0001 9.44707 74.8468 9.47038 74.6927 9.48542C74.8483 9.50257 75.0054 9.50166 75.1608 9.4827Z" fill="black"/>
      <path opacity="0.1" d="M65.7115 27.1475C66.4857 26.5561 66.0438 23.1947 66.0438 23.1947C66.0438 23.1947 64.7164 21.1259 64.6793 20.3504C64.6422 19.5749 61.6189 15.6956 61.6189 15.6956C61.2132 15.4743 60.7705 14.6617 60.7705 14.6617C60.7705 14.6617 58.2623 10.5611 57.8938 10.4133L60.3277 14.6617C60.3277 14.6617 60.7705 15.478 61.1761 15.6956C61.1761 15.6956 64.2003 19.5749 64.2365 20.3504C64.2727 21.1259 65.6001 23.1975 65.6001 23.1975C65.6001 23.1975 66.0429 26.5588 65.2678 27.1502C65.2678 27.1502 67.9199 27.8313 69.5099 27.7697C67.9163 27.7134 65.7115 27.1475 65.7115 27.1475Z" fill="black"/>
      <path opacity="0.1" d="M66.5074 17.682L66.4857 17.6539C66.4604 17.6614 66.4347 17.6671 66.4087 17.6711C66.4431 17.6757 66.4757 17.6793 66.5074 17.682Z" fill="black"/>
    </g>
    <g opacity="0.1">
      <path opacity="0.1" d="M75.1517 9.41104L75.1291 9.41558C75.0902 10.5502 74.3042 13.2159 74.3042 13.2159C74.3042 13.6957 73.7881 14.4349 73.7881 14.4349C73.7881 14.4349 71.6494 17.7228 71.1695 18.1663C70.6897 18.6098 70.8744 19.496 70.8744 19.496L70.8789 19.5051C70.8644 19.2067 70.9006 18.7441 71.2058 18.4611C71.6847 18.0176 73.8243 14.7297 73.8243 14.7297C73.8243 14.7297 74.3404 13.9905 74.3404 13.5107C74.3404 13.5161 75.2993 10.2654 75.1517 9.41104Z" fill="black"/>
      <path opacity="0.1" d="M70.4688 22.6034C70.524 22.9172 70.4869 22.5852 70.5059 22.8991C70.5059 22.8991 71.4113 21.8351 71.1641 20.52C71.2384 21.6955 70.4688 22.6034 70.4688 22.6034Z" fill="black"/>
    </g>
    <path opacity="0.1" d="M42.5373 60C63.9237 60 81.2609 58.3318 81.2609 56.274C81.2609 54.2162 63.9237 52.5481 42.5373 52.5481C21.1509 52.5481 3.81378 54.2162 3.81378 56.274C3.81378 58.3318 21.1509 60 42.5373 60Z" fill="#00B0FF"/>
    <path d="M27.5267 52.4936C27.5267 52.4936 26.2084 48.0085 27.7739 44.7079C28.4397 43.3275 28.6405 41.768 28.3462 40.2636C28.2008 39.5505 27.9904 38.8522 27.7178 38.1775" stroke="#535461" stroke-width="2" stroke-miterlimit="10"/>
    <path d="M28.6938 36.0932C28.6938 36.6429 27.6978 38.2365 27.6978 38.2365C27.6978 38.2365 26.7018 36.6429 26.7018 36.0932C26.6917 35.9564 26.7099 35.8189 26.7552 35.6894C26.8006 35.5599 26.8721 35.4412 26.9653 35.3407C27.0585 35.2401 27.1714 35.1599 27.297 35.1051C27.4226 35.0502 27.5581 35.0219 27.6951 35.0219C27.8321 35.0219 27.9676 35.0502 28.0932 35.1051C28.2188 35.1599 28.3317 35.2401 28.4249 35.3407C28.5181 35.4412 28.5896 35.5599 28.635 35.6894C28.6803 35.8189 28.6985 35.9564 28.6884 36.0932H28.6938Z" fill="#00B0FF"/>
    <path d="M30.3336 39.1371C30.0357 39.5988 28.3371 40.3951 28.3371 40.3951C28.3371 40.3951 28.3679 38.5167 28.6658 38.0551C28.7319 37.9352 28.8218 37.8303 28.9302 37.7468C29.0385 37.6633 29.1628 37.603 29.2954 37.5697C29.4279 37.5364 29.5659 37.5308 29.7008 37.5532C29.8356 37.5756 29.9644 37.6256 30.0791 37.7C30.1938 37.7744 30.292 37.8717 30.3676 37.9858C30.4431 38.0999 30.4945 38.2283 30.5183 38.3631C30.5422 38.4979 30.5381 38.6362 30.5064 38.7694C30.4746 38.9025 30.4158 39.0277 30.3336 39.1371Z" fill="#00B0FF"/>
    <path d="M30.2621 44.3406C29.7722 44.5882 27.9079 44.4168 27.9079 44.4168C27.9079 44.4168 28.8813 42.8105 29.3711 42.5629C29.4885 42.4923 29.6192 42.4467 29.7551 42.4289C29.8909 42.4112 30.0289 42.4217 30.1605 42.4598C30.292 42.4979 30.4144 42.5628 30.5198 42.6504C30.6252 42.738 30.7114 42.8465 30.7731 42.969C30.8348 43.0915 30.8706 43.2254 30.8782 43.3624C30.8859 43.4994 30.8653 43.6365 30.8177 43.7651C30.77 43.8938 30.6964 44.0112 30.6015 44.1101C30.5065 44.2089 30.3922 44.2871 30.2657 44.3397L30.2621 44.3406Z" fill="#00B0FF"/>
    <path d="M29.3231 48.2643C28.8821 48.5908 27.0115 48.7386 27.0115 48.7386C27.0115 48.7386 27.6996 46.9909 28.1415 46.6634C28.3541 46.534 28.6074 46.489 28.8515 46.5373C29.0956 46.5855 29.3129 46.7235 29.4605 46.9242C29.6081 47.1248 29.6754 47.3735 29.6491 47.6214C29.6229 47.8692 29.5049 48.0983 29.3186 48.2634L29.3231 48.2643Z" fill="#00B0FF"/>
    <path d="M26.2491 40.5022C26.643 40.8849 28.4765 41.2822 28.4765 41.2822C28.4765 41.2822 28.0238 39.4582 27.6335 39.0746C27.5425 38.9723 27.4314 38.89 27.3071 38.8326C27.1829 38.7753 27.0482 38.7442 26.9114 38.7413C26.7747 38.7383 26.6388 38.7637 26.5122 38.8157C26.3857 38.8677 26.2712 38.9453 26.1759 39.0436C26.0806 39.1418 26.0065 39.2587 25.9582 39.387C25.91 39.5152 25.8887 39.652 25.8955 39.7888C25.9024 39.9257 25.9373 40.0596 25.9982 40.1824C26.059 40.3051 26.1444 40.414 26.2491 40.5022Z" fill="#00B0FF"/>
    <path d="M25.2105 45.1061C25.7004 45.3537 27.5647 45.1823 27.5647 45.1823C27.5647 45.1823 26.595 43.576 26.1051 43.3329C25.8729 43.2363 25.6127 43.2313 25.377 43.3189C25.1412 43.4065 24.9472 43.5802 24.8339 43.8051C24.7207 44.03 24.6966 44.2895 24.7664 44.5315C24.8363 44.7735 24.9949 44.9801 25.2105 45.1098V45.1061Z" fill="#00B0FF"/>
    <path d="M24.8121 49.7191C25.2531 50.0456 27.1238 50.1935 27.1238 50.1935C27.1238 50.1935 26.4356 48.4457 25.9938 48.1183C25.8902 48.0265 25.7687 47.9574 25.637 47.9152C25.5053 47.8731 25.3662 47.8588 25.2288 47.8735C25.0913 47.8881 24.9583 47.9312 24.8384 48.0001C24.7184 48.069 24.6141 48.1622 24.5321 48.2737C24.4501 48.3852 24.3921 48.5126 24.3619 48.6477C24.3317 48.7829 24.33 48.9229 24.3567 49.0587C24.3835 49.1946 24.4382 49.3234 24.5174 49.437C24.5966 49.5505 24.6985 49.6463 24.8167 49.7182L24.8121 49.7191Z" fill="#00B0FF"/>
    <path opacity="0.1" d="M28.6938 36.0932C28.6938 36.6429 27.6978 38.2365 27.6978 38.2365C27.6978 38.2365 26.7018 36.6429 26.7018 36.0932C26.6917 35.9564 26.7099 35.8189 26.7552 35.6894C26.8006 35.5599 26.8721 35.4412 26.9653 35.3407C27.0585 35.2401 27.1714 35.1599 27.297 35.1051C27.4226 35.0502 27.5581 35.0219 27.6951 35.0219C27.8321 35.0219 27.9676 35.0502 28.0932 35.1051C28.2188 35.1599 28.3317 35.2401 28.4249 35.3407C28.5181 35.4412 28.5896 35.5599 28.635 35.6894C28.6803 35.8189 28.6985 35.9564 28.6884 36.0932H28.6938Z" fill="#00B0FF"/>
    <path opacity="0.1" d="M30.3336 39.1371C30.0357 39.5988 28.3371 40.3951 28.3371 40.3951C28.3371 40.3951 28.3679 38.5167 28.6658 38.0551C28.7319 37.9352 28.8218 37.8303 28.9302 37.7468C29.0385 37.6633 29.1628 37.603 29.2954 37.5697C29.4279 37.5364 29.5659 37.5308 29.7008 37.5532C29.8356 37.5756 29.9644 37.6256 30.0791 37.7C30.1938 37.7744 30.292 37.8717 30.3676 37.9858C30.4431 38.0999 30.4945 38.2283 30.5183 38.3631C30.5422 38.4979 30.5381 38.6362 30.5064 38.7694C30.4746 38.9025 30.4158 39.0277 30.3336 39.1371Z" fill="#00B0FF"/>
    <path opacity="0.1" d="M30.2621 44.3406C29.7722 44.5882 27.9079 44.4168 27.9079 44.4168C27.9079 44.4168 28.8813 42.8105 29.3711 42.5629C29.4885 42.4923 29.6192 42.4467 29.7551 42.4289C29.8909 42.4112 30.0289 42.4217 30.1605 42.4598C30.292 42.4979 30.4144 42.5628 30.5198 42.6504C30.6252 42.738 30.7114 42.8465 30.7731 42.969C30.8348 43.0915 30.8706 43.2254 30.8782 43.3624C30.8859 43.4994 30.8653 43.6365 30.8177 43.7651C30.77 43.8938 30.6964 44.0112 30.6015 44.1101C30.5065 44.2089 30.3922 44.2871 30.2657 44.3397L30.2621 44.3406Z" fill="#00B0FF"/>
    <path opacity="0.1" d="M29.3231 48.2643C28.8821 48.5908 27.0115 48.7386 27.0115 48.7386C27.0115 48.7386 27.6996 46.9909 28.1415 46.6634C28.3541 46.534 28.6074 46.489 28.8515 46.5373C29.0956 46.5855 29.3129 46.7235 29.4605 46.9242C29.6081 47.1248 29.6754 47.3735 29.6491 47.6214C29.6229 47.8692 29.5049 48.0983 29.3186 48.2634L29.3231 48.2643Z" fill="#00B0FF"/>
    <path opacity="0.1" d="M26.2491 40.5022C26.643 40.8849 28.4765 41.2822 28.4765 41.2822C28.4765 41.2822 28.0238 39.4582 27.6335 39.0746C27.5425 38.9723 27.4314 38.89 27.3071 38.8326C27.1829 38.7753 27.0482 38.7442 26.9114 38.7413C26.7747 38.7383 26.6388 38.7637 26.5122 38.8157C26.3857 38.8677 26.2712 38.9453 26.1759 39.0436C26.0806 39.1418 26.0065 39.2587 25.9582 39.387C25.91 39.5152 25.8887 39.652 25.8955 39.7888C25.9024 39.9257 25.9373 40.0596 25.9982 40.1824C26.059 40.3051 26.1444 40.414 26.2491 40.5022Z" fill="#00B0FF"/>
    <path opacity="0.1" d="M25.2105 45.1061C25.7004 45.3537 27.5647 45.1823 27.5647 45.1823C27.5647 45.1823 26.595 43.576 26.1051 43.3329C25.8729 43.2363 25.6127 43.2313 25.377 43.3189C25.1412 43.4065 24.9472 43.5802 24.8339 43.8051C24.7207 44.03 24.6966 44.2895 24.7664 44.5315C24.8363 44.7735 24.9949 44.9801 25.2105 45.1098V45.1061Z" fill="#00B0FF"/>
    <path opacity="0.1" d="M24.8121 49.7191C25.2531 50.0456 27.1238 50.1935 27.1238 50.1935C27.1238 50.1935 26.4356 48.4457 25.9938 48.1183C25.8902 48.0265 25.7687 47.9574 25.637 47.9152C25.5053 47.8731 25.3662 47.8588 25.2288 47.8735C25.0913 47.8881 24.9583 47.9312 24.8384 48.0001C24.7184 48.069 24.6141 48.1622 24.5321 48.2737C24.4501 48.3852 24.3921 48.5126 24.3619 48.6477C24.3317 48.7829 24.33 48.9229 24.3567 49.0587C24.3835 49.1946 24.4382 49.3234 24.5174 49.437C24.5966 49.5505 24.6985 49.6463 24.8167 49.7182L24.8121 49.7191Z" fill="#00B0FF"/>
    <path d="M54.205 52.558C54.205 52.558 52.8866 48.0729 54.4522 44.7723C55.118 43.392 55.3188 41.8325 55.0244 40.328C54.879 39.6149 54.6687 38.9166 54.396 38.2419" stroke="#535461" stroke-width="2" stroke-miterlimit="10"/>
    <path d="M55.3703 36.1567C55.3703 36.7064 54.3743 38.3 54.3743 38.3C54.3743 38.3 53.3783 36.7064 53.3783 36.1567C53.3969 35.9056 53.5096 35.6707 53.6938 35.4993C53.8781 35.3279 54.1202 35.2327 54.3716 35.2327C54.623 35.2327 54.8652 35.3279 55.0494 35.4993C55.2336 35.6707 55.3463 35.9056 55.3649 36.1567H55.3703Z" fill="#00B0FF"/>
    <path d="M57.0128 39.2006C56.7149 39.6623 55.0163 40.4586 55.0163 40.4586C55.0163 40.4586 55.0471 38.5802 55.345 38.1186C55.4111 37.9987 55.501 37.8938 55.6094 37.8103C55.7177 37.7268 55.842 37.6665 55.9745 37.6332C56.1071 37.5998 56.2451 37.5942 56.38 37.6166C56.5148 37.6391 56.6436 37.689 56.7583 37.7635C56.873 37.8379 56.9712 37.9352 57.0468 38.0493C57.1223 38.1634 57.1737 38.2918 57.1975 38.4266C57.2214 38.5614 57.2173 38.6997 57.1856 38.8329C57.1538 38.966 57.095 39.0912 57.0128 39.2006Z" fill="#00B0FF"/>
    <path d="M56.944 44.4041C56.4541 44.6517 54.5898 44.4803 54.5898 44.4803C54.5898 44.4803 55.5632 42.874 56.053 42.6264C56.1706 42.5551 56.3016 42.509 56.4378 42.4909C56.5741 42.4728 56.7125 42.4831 56.8446 42.5212C56.9766 42.5594 57.0994 42.6244 57.2051 42.7124C57.3108 42.8003 57.3972 42.9092 57.4589 43.0323C57.5205 43.1553 57.5561 43.2898 57.5633 43.4272C57.5706 43.5647 57.5494 43.7022 57.501 43.831C57.4527 43.9599 57.3782 44.0773 57.2823 44.1759C57.1865 44.2746 57.0713 44.3522 56.944 44.4041Z" fill="#00B0FF"/>
    <path d="M56.0014 48.3278C55.5605 48.6543 53.6898 48.8022 53.6898 48.8022C53.6898 48.8022 54.3779 47.0544 54.8198 46.727C55.0324 46.5975 55.2857 46.5525 55.5298 46.6008C55.774 46.649 55.9912 46.787 56.1388 46.9877C56.2864 47.1883 56.3537 47.4371 56.3274 47.6849C56.3012 47.9328 56.1833 48.1618 55.9969 48.3269L56.0014 48.3278Z" fill="#00B0FF"/>
    <path d="M52.9292 40.5657C53.3231 40.9484 55.1566 41.3457 55.1566 41.3457C55.1566 41.3457 54.7039 39.5217 54.3136 39.138C54.2226 39.0358 54.1115 38.9534 53.9872 38.8961C53.863 38.8387 53.7283 38.8076 53.5915 38.8047C53.4548 38.8018 53.3189 38.8272 53.1923 38.8792C53.0658 38.9312 52.9513 39.0087 52.856 39.107C52.7607 39.2053 52.6866 39.3222 52.6384 39.4504C52.5901 39.5787 52.5688 39.7155 52.5757 39.8523C52.5825 39.9892 52.6175 40.1231 52.6783 40.2458C52.7391 40.3686 52.8245 40.4774 52.9292 40.5657Z" fill="#00B0FF"/>
    <path d="M51.8888 45.1696C52.3787 45.4172 54.243 45.2458 54.243 45.2458C54.243 45.2458 53.2697 43.6395 52.7798 43.3919C52.5476 43.2953 52.2874 43.2903 52.0516 43.3779C51.8158 43.4654 51.6219 43.6391 51.5086 43.864C51.3954 44.089 51.3713 44.3485 51.4411 44.5905C51.511 44.8324 51.6696 45.039 51.8852 45.1687L51.8888 45.1696Z" fill="#00B0FF"/>
    <path d="M51.4913 49.7826C51.9323 50.1092 53.803 50.257 53.803 50.257C53.803 50.257 53.1148 48.5092 52.673 48.1818C52.4603 48.0524 52.207 48.0073 51.9629 48.0556C51.7188 48.1038 51.5016 48.2419 51.3539 48.4425C51.2063 48.6432 51.139 48.8919 51.1653 49.1397C51.1916 49.3876 51.3095 49.6166 51.4959 49.7817L51.4913 49.7826Z" fill="#00B0FF"/>
    <path opacity="0.1" d="M55.3703 36.1567C55.3703 36.7064 54.3743 38.3 54.3743 38.3C54.3743 38.3 53.3783 36.7064 53.3783 36.1567C53.3969 35.9056 53.5096 35.6707 53.6938 35.4993C53.8781 35.3279 54.1202 35.2327 54.3716 35.2327C54.623 35.2327 54.8652 35.3279 55.0494 35.4993C55.2336 35.6707 55.3463 35.9056 55.3649 36.1567H55.3703Z" fill="#00B0FF"/>
    <path opacity="0.1" d="M57.0128 39.2006C56.7149 39.6623 55.0163 40.4586 55.0163 40.4586C55.0163 40.4586 55.0471 38.5802 55.345 38.1186C55.4111 37.9987 55.501 37.8938 55.6094 37.8103C55.7177 37.7268 55.842 37.6665 55.9745 37.6332C56.1071 37.5998 56.2451 37.5942 56.38 37.6166C56.5148 37.6391 56.6436 37.689 56.7583 37.7635C56.873 37.8379 56.9712 37.9352 57.0468 38.0493C57.1223 38.1634 57.1737 38.2918 57.1975 38.4266C57.2214 38.5614 57.2173 38.6997 57.1856 38.8329C57.1538 38.966 57.095 39.0912 57.0128 39.2006Z" fill="#00B0FF"/>
    <path opacity="0.1" d="M56.944 44.4041C56.4541 44.6517 54.5898 44.4803 54.5898 44.4803C54.5898 44.4803 55.5632 42.874 56.053 42.6264C56.1706 42.5551 56.3016 42.509 56.4378 42.4909C56.5741 42.4728 56.7125 42.4831 56.8446 42.5212C56.9766 42.5594 57.0994 42.6244 57.2051 42.7124C57.3108 42.8003 57.3972 42.9092 57.4589 43.0323C57.5205 43.1553 57.5561 43.2898 57.5633 43.4272C57.5706 43.5647 57.5494 43.7022 57.501 43.831C57.4527 43.9599 57.3782 44.0773 57.2823 44.1759C57.1865 44.2746 57.0713 44.3522 56.944 44.4041Z" fill="#00B0FF"/>
    <path opacity="0.1" d="M56.0014 48.3278C55.5605 48.6543 53.6898 48.8022 53.6898 48.8022C53.6898 48.8022 54.3779 47.0544 54.8198 46.727C55.0324 46.5975 55.2857 46.5525 55.5298 46.6008C55.774 46.649 55.9912 46.787 56.1388 46.9877C56.2864 47.1883 56.3537 47.4371 56.3274 47.6849C56.3012 47.9328 56.1833 48.1618 55.9969 48.3269L56.0014 48.3278Z" fill="#00B0FF"/>
    <path opacity="0.1" d="M52.9292 40.5657C53.3231 40.9484 55.1566 41.3457 55.1566 41.3457C55.1566 41.3457 54.7039 39.5217 54.3136 39.138C54.2226 39.0358 54.1115 38.9534 53.9872 38.8961C53.863 38.8387 53.7283 38.8076 53.5915 38.8047C53.4548 38.8018 53.3189 38.8272 53.1923 38.8792C53.0658 38.9312 52.9513 39.0087 52.856 39.107C52.7607 39.2053 52.6866 39.3222 52.6384 39.4504C52.5901 39.5787 52.5688 39.7155 52.5757 39.8523C52.5825 39.9892 52.6175 40.1231 52.6783 40.2458C52.7391 40.3686 52.8245 40.4774 52.9292 40.5657Z" fill="#00B0FF"/>
    <path opacity="0.1" d="M51.8888 45.1696C52.3787 45.4172 54.243 45.2458 54.243 45.2458C54.243 45.2458 53.2697 43.6395 52.7798 43.3919C52.5476 43.2953 52.2874 43.2903 52.0516 43.3779C51.8158 43.4654 51.6219 43.6391 51.5086 43.864C51.3954 44.089 51.3713 44.3485 51.4411 44.5905C51.511 44.8324 51.6696 45.039 51.8852 45.1687L51.8888 45.1696Z" fill="#00B0FF"/>
    <path opacity="0.1" d="M51.4913 49.7826C51.9323 50.1092 53.803 50.257 53.803 50.257C53.803 50.257 53.1148 48.5092 52.673 48.1818C52.4603 48.0524 52.207 48.0073 51.9629 48.0556C51.7188 48.1038 51.5016 48.2419 51.3539 48.4425C51.2063 48.6432 51.139 48.8919 51.1653 49.1397C51.1916 49.3876 51.3095 49.6166 51.4959 49.7817L51.4913 49.7826Z" fill="#00B0FF"/>
    <path opacity="0.5" d="M60.6564 1.38862H60.0877C60.1416 1.39119 60.1954 1.38279 60.2459 1.36392C60.2965 1.34505 60.3426 1.3161 60.3816 1.27883C60.4207 1.24156 60.4517 1.19675 60.473 1.1471C60.4942 1.09745 60.5051 1.044 60.5051 0.989993C60.5051 0.935983 60.4942 0.882536 60.473 0.832888C60.4517 0.783239 60.4207 0.738423 60.3816 0.701153C60.3426 0.663884 60.2965 0.634937 60.2459 0.616066C60.1954 0.597194 60.1416 0.588791 60.0877 0.591365H55.4772C55.3749 0.596253 55.2785 0.640385 55.2078 0.714606C55.1372 0.788828 55.0978 0.887443 55.0978 0.989993C55.0978 1.09254 55.1372 1.19116 55.2078 1.26538C55.2785 1.3396 55.3749 1.38373 55.4772 1.38862H56.0458C55.9435 1.39351 55.8471 1.43764 55.7764 1.51186C55.7058 1.58608 55.6664 1.6847 55.6664 1.78725C55.6664 1.8898 55.7058 1.98841 55.7764 2.06263C55.8471 2.13686 55.9435 2.18099 56.0458 2.18588H55.2499C55.196 2.1833 55.1422 2.1917 55.0917 2.21058C55.0412 2.22945 54.995 2.25839 54.956 2.29566C54.917 2.33293 54.8859 2.37775 54.8647 2.4274C54.8435 2.47705 54.8325 2.53049 54.8325 2.5845C54.8325 2.63851 54.8435 2.69196 54.8647 2.74161C54.8859 2.79126 54.917 2.83607 54.956 2.87334C54.995 2.91061 55.0412 2.93956 55.0917 2.95843C55.1422 2.9773 55.196 2.98571 55.2499 2.98313H59.8569C59.9107 2.98571 59.9645 2.9773 60.015 2.95843C60.0656 2.93956 60.1117 2.91061 60.1508 2.87334C60.1898 2.83607 60.2208 2.79126 60.2421 2.74161C60.2633 2.69196 60.2742 2.63851 60.2742 2.5845C60.2742 2.53049 60.2633 2.47705 60.2421 2.4274C60.2208 2.37775 60.1898 2.33293 60.1508 2.29566C60.1117 2.25839 60.0656 2.22945 60.015 2.21058C59.9645 2.1917 59.9107 2.1833 59.8569 2.18588H60.6564C60.7586 2.18099 60.8551 2.13686 60.9257 2.06263C60.9964 1.98841 61.0358 1.8898 61.0358 1.78725C61.0358 1.6847 60.9964 1.58608 60.9257 1.51186C60.8551 1.43764 60.7586 1.39351 60.6564 1.38862Z" fill="#DEE3F3"/>
    <path opacity="0.5" d="M34.0161 3.71417H33.5833C33.6245 3.71643 33.6656 3.71025 33.7044 3.69602C33.7431 3.6818 33.7785 3.65981 33.8084 3.63142C33.8383 3.60303 33.8622 3.56882 33.8785 3.53088C33.8948 3.49294 33.9032 3.45208 33.9032 3.41078C33.9032 3.36948 33.8948 3.32862 33.8785 3.29068C33.8622 3.25274 33.8383 3.21853 33.8084 3.19014C33.7785 3.16174 33.7431 3.13976 33.7044 3.12553C33.6656 3.11131 33.6245 3.10513 33.5833 3.10739H30.0774C29.9999 3.11163 29.927 3.14545 29.8737 3.20188C29.8203 3.25831 29.7906 3.33307 29.7906 3.41078C29.7906 3.48849 29.8203 3.56325 29.8737 3.61968C29.927 3.67611 29.9999 3.70993 30.0774 3.71417H30.5102C30.469 3.71192 30.4278 3.71809 30.3891 3.73232C30.3504 3.74655 30.315 3.76853 30.2851 3.79692C30.2551 3.82532 30.2313 3.85953 30.215 3.89746C30.1987 3.9354 30.1903 3.97627 30.1903 4.01756C30.1903 4.05886 30.1987 4.09973 30.215 4.13766C30.2313 4.1756 30.2551 4.20981 30.2851 4.2382C30.315 4.2666 30.3504 4.28858 30.3891 4.30281C30.4278 4.31704 30.469 4.32321 30.5102 4.32096H29.9044C29.8633 4.3187 29.8221 4.32488 29.7834 4.3391C29.7447 4.35333 29.7093 4.37531 29.6793 4.40371C29.6494 4.4321 29.6255 4.46631 29.6092 4.50425C29.5929 4.54218 29.5845 4.58305 29.5845 4.62435C29.5845 4.66565 29.5929 4.70651 29.6092 4.74445C29.6255 4.78238 29.6494 4.8166 29.6793 4.84499C29.7093 4.87338 29.7447 4.89537 29.7834 4.90959C29.8221 4.92382 29.8633 4.93 29.9044 4.92774H33.4103C33.4515 4.93 33.4927 4.92382 33.5314 4.90959C33.5701 4.89537 33.6055 4.87338 33.6355 4.84499C33.6654 4.8166 33.6892 4.78238 33.7055 4.74445C33.7218 4.70651 33.7302 4.66565 33.7302 4.62435C33.7302 4.58305 33.7218 4.54218 33.7055 4.50425C33.6892 4.46631 33.6654 4.4321 33.6355 4.40371C33.6055 4.37531 33.5701 4.35333 33.5314 4.3391C33.4927 4.32488 33.4515 4.3187 33.4103 4.32096H34.0161C34.0936 4.31671 34.1665 4.2829 34.2198 4.22647C34.2731 4.17003 34.3029 4.09528 34.3029 4.01756C34.3029 3.93985 34.2731 3.86509 34.2198 3.80866C34.1665 3.75223 34.0936 3.71842 34.0161 3.71417Z" fill="#DEE3F3"/>
    <path d="M4.58883 46.6888C4.58883 46.6888 6.17337 49.8044 4.88219 51.5086C3.59102 53.2129 4.9999 57.8576 4.9999 57.8576" stroke="#00B0FF" stroke-miterlimit="10"/>
    <path d="M5.06144 45.7147C5.06144 46.3152 4.62139 46.8031 4.62139 46.8031C4.62139 46.8031 4.18134 46.3161 4.18134 45.7147C4.18134 45.1134 4.62139 44.6263 4.62139 44.6263C4.62139 44.6263 5.06144 45.1143 5.06144 45.7147Z" fill="#00B0FF"/>
    <path d="M5.4101 46.6888C5.4101 46.6888 3.82555 49.8044 5.11673 51.5086C6.40791 53.2129 4.99902 57.8576 4.99902 57.8576" stroke="#00B0FF" stroke-miterlimit="10"/>
    <path d="M4.9411 45.7147C4.9411 46.3152 5.38115 46.8031 5.38115 46.8031C5.38115 46.8031 5.8212 46.3161 5.8212 45.7147C5.8212 45.1134 5.38115 44.6263 5.38115 44.6263C5.38115 44.6263 4.9411 45.1143 4.9411 45.7147Z" fill="#00B0FF"/>
    <path opacity="0.1" d="M4.9411 45.7147C4.9411 46.3152 5.38115 46.8031 5.38115 46.8031C5.38115 46.8031 5.8212 46.3161 5.8212 45.7147C5.8212 45.1134 5.38115 44.6263 5.38115 44.6263C5.38115 44.6263 4.9411 45.1143 4.9411 45.7147Z" fill="black"/>
    <path d="M6.05745 46.6888C6.05745 46.6888 7.642 49.8044 6.35082 51.5086C5.05964 53.2129 6.46853 57.8576 6.46853 57.8576" stroke="#00B0FF" stroke-miterlimit="10"/>
    <path d="M6.52561 45.7147C6.52561 46.3152 6.08556 46.8031 6.08556 46.8031C6.08556 46.8031 5.64551 46.3161 5.64551 45.7147C5.64551 45.1134 6.08556 44.6263 6.08556 44.6263C6.08556 44.6263 6.52561 45.1143 6.52561 45.7147Z" fill="#00B0FF"/>
    <path d="M6.27838 48.2108C5.86277 48.6434 5.20813 48.6888 5.20813 48.6888C5.20813 48.6888 5.22805 48.0321 5.64365 47.6004C6.05926 47.1686 6.7139 47.1224 6.7139 47.1224C6.7139 47.1224 6.69126 47.7772 6.27838 48.2108Z" fill="#00B0FF"/>
    <path d="M6.32006 50.3604C5.90446 50.793 5.24982 50.8384 5.24982 50.8384C5.24982 50.8384 5.26974 50.1817 5.68534 49.75C6.10094 49.3182 6.75559 49.272 6.75559 49.272C6.75559 49.272 6.73567 49.9268 6.32006 50.3604Z" fill="#00B0FF"/>
    <path d="M4.06547 51.5422C4.45843 51.9957 4.44485 52.6524 4.44485 52.6524C4.44485 52.6524 3.79383 52.5735 3.40087 52.12C3.0079 51.6665 3.02148 51.0098 3.02148 51.0098C3.02148 51.0098 3.6725 51.0887 4.06547 51.5422Z" fill="#00B0FF"/>
    <path d="M4.42766 46.9609C4.92747 47.2929 5.08954 47.9296 5.08954 47.9296C5.08954 47.9296 4.44124 48.0285 3.94143 47.6965C3.44162 47.3646 3.27954 46.7278 3.27954 46.7278C3.27954 46.7278 3.93056 46.6272 4.42766 46.9609Z" fill="#00B0FF"/>
    <path opacity="0.1" d="M4.42766 46.9609C4.92747 47.2929 5.08954 47.9296 5.08954 47.9296C5.08954 47.9296 4.44124 48.0285 3.94143 47.6965C3.44162 47.3646 3.27954 46.7278 3.27954 46.7278C3.27954 46.7278 3.93056 46.6272 4.42766 46.9609Z" fill="black"/>
    <path d="M6.8769 46.6888C6.8769 46.6888 5.29235 49.8044 6.58353 51.5086C7.87471 53.2129 6.46582 57.8576 6.46582 57.8576" stroke="#00B0FF" stroke-miterlimit="10"/>
    <path d="M6.4079 45.7147C6.4079 46.3152 6.84795 46.8031 6.84795 46.8031C6.84795 46.8031 7.288 46.3161 7.288 45.7147C7.288 45.1134 6.84795 44.6263 6.84795 44.6263C6.84795 44.6263 6.4079 45.1143 6.4079 45.7147Z" fill="#00B0FF"/>
    <path opacity="0.1" d="M6.4079 45.7147C6.4079 46.3152 6.84795 46.8031 6.84795 46.8031C6.84795 46.8031 7.288 46.3161 7.288 45.7147C7.288 45.1134 6.84795 44.6263 6.84795 44.6263C6.84795 44.6263 6.4079 45.1143 6.4079 45.7147Z" fill="black"/>
    <path d="M6.53464 48.257C6.1136 48.6851 6.08191 49.3454 6.08191 49.3454C6.08191 49.3454 6.73655 49.3082 7.15759 48.8801C7.57862 48.452 7.61031 47.7917 7.61031 47.7917C7.61031 47.7917 6.95567 47.8289 6.53464 48.257Z" fill="#00B0FF"/>
    <path opacity="0.1" d="M6.53464 48.257C6.1136 48.6851 6.08191 49.3454 6.08191 49.3454C6.08191 49.3454 6.73655 49.3082 7.15759 48.8801C7.57862 48.452 7.61031 47.7917 7.61031 47.7917C7.61031 47.7917 6.95567 47.8289 6.53464 48.257Z" fill="black"/>
    <path d="M7.35953 51.2329C6.93849 51.661 6.9068 52.3213 6.9068 52.3213C6.9068 52.3213 7.56144 52.2841 7.98248 51.856C8.40351 51.4279 8.4352 50.7676 8.4352 50.7676C8.4352 50.7676 7.77785 50.8048 7.35953 51.2329Z" fill="#00B0FF"/>
    <path d="M6.14801 50.5789C6.14801 50.5789 7.10145 49.0733 8.44062 49.037" stroke="#00B0FF" stroke-miterlimit="10"/>
    <path d="M5.40284 49.6692C5.40284 49.6692 4.4494 48.1636 3.11023 48.1273" stroke="#00B0FF" stroke-miterlimit="10"/>
    <path d="M5.27875 51.8189C5.27875 51.8189 6.23219 50.3132 7.57136 50.2769" stroke="#00B0FF" stroke-miterlimit="10"/>
    <path d="M8.39447 49.2765C8.53098 49.2765 8.64165 49.1656 8.64165 49.0289C8.64165 48.8921 8.53098 48.7813 8.39447 48.7813C8.25795 48.7813 8.14728 48.8921 8.14728 49.0289C8.14728 49.1656 8.25795 49.2765 8.39447 49.2765Z" fill="#00B0FF"/>
    <path d="M3.13372 48.3876C3.27024 48.3876 3.38091 48.2768 3.38091 48.14C3.38091 48.0033 3.27024 47.8924 3.13372 47.8924C2.99721 47.8924 2.88654 48.0033 2.88654 48.14C2.88654 48.2768 2.99721 48.3876 3.13372 48.3876Z" fill="#00B0FF"/>
    <path d="M5.98054 52.3123C5.98054 52.3123 5.02709 50.8066 3.68793 50.7704" stroke="#00B0FF" stroke-miterlimit="10"/>
    <path d="M3.71148 51.0325C3.848 51.0325 3.95867 50.9216 3.95867 50.7849C3.95867 50.6481 3.848 50.5373 3.71148 50.5373C3.57497 50.5373 3.46429 50.6481 3.46429 50.7849C3.46429 50.9216 3.57497 51.0325 3.71148 51.0325Z" fill="#00B0FF"/>
    <path d="M7.58954 50.5373C7.72605 50.5373 7.83673 50.4264 7.83673 50.2896C7.83673 50.1529 7.72605 50.042 7.58954 50.042C7.45302 50.042 7.34235 50.1529 7.34235 50.2896C7.34235 50.4264 7.45302 50.5373 7.58954 50.5373Z" fill="#00B0FF"/>
    <path d="M11.253 56.0445C11.253 56.0445 8.95495 55.5838 8.34105 54.9697C7.72715 54.3557 4.97095 53.2818 4.664 54.0491C4.35705 54.8165 0.52698 57.4259 3.13197 57.8867C5.73696 58.3474 9.26099 58.5007 10.027 58.1932C10.793 57.8858 11.253 56.0445 11.253 56.0445Z" fill="#A8A8A8"/>
    <path opacity="0.2" d="M3.13196 57.601C5.73695 58.0618 9.26098 58.215 10.027 57.9076C10.6101 57.6736 11.0157 56.5471 11.176 56.0283L11.253 56.0446C11.253 56.0446 10.793 57.8867 10.027 58.1933C9.26098 58.4998 5.73695 58.3466 3.13196 57.8867C2.38043 57.7534 2.16493 57.4414 2.24642 57.0468C2.30981 57.3008 2.57239 57.5021 3.13196 57.601Z" fill="black"/>
    <path d="M81.0227 47.3945C81.0227 47.3945 81.7815 48.3922 80.6723 49.8887C79.5631 51.3853 78.6486 52.656 79.019 53.592C79.019 53.592 80.6922 50.8048 82.054 50.7658C83.4158 50.7268 82.5213 49.0697 81.0227 47.3945Z" fill="#00B0FF"/>
    <path opacity="0.1" d="M81.0227 47.3945C81.0888 47.4906 81.141 47.5956 81.1776 47.7065C82.5068 49.2701 83.2139 50.7295 81.9372 50.7667C80.7475 50.8012 79.3205 52.9317 78.9782 53.4705C78.9895 53.512 79.0031 53.5529 79.019 53.5929C79.019 53.5929 80.6922 50.8057 82.054 50.7667C83.4158 50.7277 82.5213 49.0697 81.0227 47.3945Z" fill="black"/>
    <path d="M82.4334 48.6607C82.4334 49.0108 82.3945 49.2956 82.3429 49.2956C82.2913 49.2956 82.2523 49.0117 82.2523 48.6607C82.2523 48.3096 82.3012 48.4793 82.3492 48.4793C82.3972 48.4793 82.4334 48.3115 82.4334 48.6607Z" fill="#FFD037"/>
    <path d="M82.9178 49.0788C82.6109 49.2466 82.3438 49.3509 82.3212 49.3046C82.2985 49.2584 82.5276 49.0915 82.8345 48.9246C83.1415 48.7577 83.0202 48.8793 83.0437 48.9246C83.0672 48.97 83.2239 48.911 82.9178 49.0788Z" fill="#FFD037"/>
    <path d="M77.0152 47.3945C77.0152 47.3945 76.2564 48.3922 77.3656 49.8887C78.4748 51.3853 79.3893 52.656 79.019 53.592C79.019 53.592 77.3457 50.8048 75.9839 50.7658C74.6221 50.7268 75.5167 49.0697 77.0152 47.3945Z" fill="#00B0FF"/>
    <path opacity="0.1" d="M77.0152 47.3945C76.9491 47.4906 76.8969 47.5956 76.8604 47.7065C75.5312 49.2701 74.824 50.7295 76.1007 50.7667C77.2904 50.8012 78.7174 52.9317 79.0597 53.4705C79.0484 53.512 79.0348 53.5529 79.0189 53.5929C79.0189 53.5929 77.3457 50.8057 75.9839 50.7667C74.6221 50.7277 75.5167 49.0697 77.0152 47.3945Z" fill="black"/>
    <path d="M75.6045 48.6607C75.6045 49.0108 75.6434 49.2956 75.695 49.2956C75.7466 49.2956 75.7856 49.0117 75.7856 48.6607C75.7856 48.3096 75.7367 48.4793 75.6887 48.4793C75.6407 48.4793 75.6045 48.3115 75.6045 48.6607Z" fill="#FFD037"/>
    <path d="M75.1201 49.0788C75.427 49.2466 75.6941 49.3509 75.7168 49.3046C75.7394 49.2584 75.5103 49.0915 75.2034 48.9246C74.8964 48.7577 75.0177 48.8793 74.9942 48.9246C74.9707 48.97 74.8131 48.911 75.1201 49.0788Z" fill="#FFD037"/>
    <path d="M75.8463 53.4614C75.8463 53.4614 77.9677 53.3961 78.607 52.9399C79.2462 52.4837 81.8666 51.9422 82.0287 52.6678C82.1908 53.3934 85.2168 56.3058 82.8219 56.3248C80.4269 56.3439 77.2569 55.9511 76.6186 55.562C75.9803 55.1729 75.8463 53.4614 75.8463 53.4614Z" fill="#A8A8A8"/>
    <path opacity="0.2" d="M82.8644 56.0736C80.4695 56.0927 77.2995 55.6999 76.6612 55.3108C76.1749 55.0142 75.9812 53.9503 75.9169 53.4596H75.8463C75.8463 53.4596 75.9803 55.1739 76.6186 55.563C77.2569 55.9521 80.427 56.3457 82.8219 56.3258C83.5136 56.3203 83.7518 56.0736 83.7391 55.709C83.6431 55.9312 83.3833 56.0691 82.8644 56.0736Z" fill="black"/>
    <path opacity="0.5" d="M16.1026 6.76985H15.534C15.5879 6.77242 15.6417 6.76402 15.6922 6.74515C15.7427 6.72627 15.7889 6.69733 15.8279 6.66006C15.8669 6.62279 15.898 6.57797 15.9192 6.52832C15.9404 6.47868 15.9514 6.42523 15.9514 6.37122C15.9514 6.31721 15.9404 6.26376 15.9192 6.21411C15.898 6.16446 15.8669 6.11965 15.8279 6.08238C15.7889 6.04511 15.7427 6.01616 15.6922 5.99729C15.6417 5.97842 15.5879 5.97002 15.534 5.97259H10.9271C10.8248 5.97748 10.7283 6.02161 10.6577 6.09583C10.5871 6.17005 10.5476 6.26867 10.5476 6.37122C10.5476 6.47377 10.5871 6.57238 10.6577 6.6466C10.7283 6.72083 10.8248 6.76496 10.9271 6.76985H11.4957C11.3934 6.77473 11.297 6.81887 11.2263 6.89309C11.1557 6.96731 11.1163 7.06592 11.1163 7.16847C11.1163 7.27102 11.1557 7.36964 11.2263 7.44386C11.297 7.51808 11.3934 7.56221 11.4957 7.5671H10.6998C10.5975 7.57199 10.5011 7.61612 10.4304 7.69034C10.3598 7.76456 10.3204 7.86318 10.3204 7.96573C10.3204 8.06828 10.3598 8.16689 10.4304 8.24111C10.5011 8.31534 10.5975 8.35947 10.6998 8.36436H15.3067C15.3606 8.36693 15.4144 8.35853 15.4649 8.33966C15.5154 8.32078 15.5616 8.29184 15.6006 8.25457C15.6397 8.2173 15.6707 8.17248 15.692 8.12283C15.7132 8.07318 15.7241 8.01974 15.7241 7.96573C15.7241 7.91172 15.7132 7.85827 15.692 7.80862C15.6707 7.75897 15.6397 7.71416 15.6006 7.67689C15.5616 7.63962 15.5154 7.61067 15.4649 7.5918C15.4144 7.57293 15.3606 7.56453 15.3067 7.5671H16.1026C16.2049 7.56221 16.3013 7.51808 16.372 7.44386C16.4426 7.36964 16.482 7.27102 16.482 7.16847C16.482 7.06592 16.4426 6.96731 16.372 6.89309C16.3013 6.81887 16.2049 6.77473 16.1026 6.76985Z" fill="#DEE3F3"/>
  </g>
  <defs>
    <linearGradient id="paint0_linear_21_1" x1="41.6961" y1="49.3192" x2="41.6961" y2="11.7693" gradientUnits="userSpaceOnUse">
      <stop stop-color="#808080" stop-opacity="0.25"/>
      <stop offset="0.54" stop-color="#808080" stop-opacity="0.12"/>
      <stop offset="1" stop-color="#808080" stop-opacity="0.1"/>
    </linearGradient>
    <linearGradient id="paint1_linear_21_1" x1="34.9949" y1="43.1367" x2="34.9949" y2="43.1322" gradientUnits="userSpaceOnUse">
      <stop stop-color="#808080" stop-opacity="0.25"/>
      <stop offset="0.54" stop-color="#808080" stop-opacity="0.12"/>
      <stop offset="1" stop-color="#808080" stop-opacity="0.1"/>
    </linearGradient>
    <linearGradient id="paint2_linear_21_1" x1="5830.72" y1="18339.5" x2="5830.72" y2="8222.47" gradientUnits="userSpaceOnUse">
      <stop stop-color="#808080" stop-opacity="0.25"/>
      <stop offset="0.54" stop-color="#808080" stop-opacity="0.12"/>
      <stop offset="1" stop-color="#808080" stop-opacity="0.1"/>
    </linearGradient>
    <linearGradient id="paint3_linear_21_1" x1="16425.1" y1="22231" x2="16425.1" y2="7205.71" gradientUnits="userSpaceOnUse">
      <stop stop-color="#808080" stop-opacity="0.25"/>
      <stop offset="0.54" stop-color="#808080" stop-opacity="0.12"/>
      <stop offset="1" stop-color="#808080" stop-opacity="0.1"/>
    </linearGradient>
    <clipPath id="clip0_21_1">
      <rect width="86" height="60" fill="white"/>
    </clipPath>
  </defs>
</svg>